<?xml version="1.0" encoding="utf-8"?>
<!-- Generator: Adobe Illustrator 22.1.0, SVG Export Plug-In . SVG Version: 6.00 Build 0)  -->
<svg version="1.1" id="Layer_1" xmlns="http://www.w3.org/2000/svg" xmlns:xlink="http://www.w3.org/1999/xlink" x="0px" y="0px"
	 viewBox="0 0 50 50" style="enable-background:new 0 0 50 50;" xml:space="preserve">
<style type="text/css">
	.st0{fill:#008660;}
	.st1{fill:none;stroke:#000000;stroke-miterlimit:10;}
</style>
<path class="st0" d="M-1111.7,32.8h5.4c0.3,0,0.6-0.3,0.6-0.6v-12c0-0.3-0.3-0.6-0.6-0.6h-5.4c-0.3,0-0.6,0.3-0.6,0.6v12
	C-1112.3,32.5-1112,32.8-1111.7,32.8z M-1111.1,20.8h4.3v10.8h-4.3V20.8z"/>
<path class="st0" d="M-1098.6,39c0.3,0,0.6-0.3,0.6-0.6V36c0-0.3-0.3-0.6-0.6-0.6c-0.3,0-0.6,0.3-0.6,0.6v2.4
	C-1099.2,38.7-1098.9,39-1098.6,39z"/>
<g>
	<path class="st1" d="M45.8,32.2h-6.1c-1.2-3.8-5.2-5.9-9-4.7c-2.2,0.7-4,2.4-4.7,4.7H20c-0.4,0-0.6,0.3-0.7,0.6l-1.4,14.4
		c0,0.2,0.1,0.4,0.2,0.6c0.1,0.1,0.4,0.2,0.5,0.2h28.8c0.2,0,0.4-0.1,0.5-0.2c0.1-0.1,0.2-0.4,0.2-0.6l-1.4-14.4
		C46.5,32.5,46.2,32.2,45.8,32.2z M32.9,28.6c2.4,0,4.5,1.4,5.3,3.6H27.6C28.4,30,30.5,28.6,32.9,28.6z M19.3,46.6l0.2-2.2h22.7V43
		H19.7l0.9-9.3h5.1c0,0.2,0,0.5,0,0.7c0,0.1,0,0.1,0,0.1c-1.1,0.4-1.7,1.6-1.4,2.7s1.6,1.7,2.7,1.4s1.7-1.6,1.4-2.7
		c-0.2-0.6-0.7-1.1-1.4-1.4c0-0.1,0-0.1,0-0.1c0-0.2,0-0.5,0.1-0.7h11.4c0,0.2,0.1,0.5,0.1,0.7c0,0.1,0,0.1,0,0.1
		c-1.1,0.4-1.7,1.6-1.4,2.7s1.6,1.7,2.7,1.4s1.7-1.6,1.4-2.7c-0.2-0.6-0.7-1.1-1.4-1.4c0-0.1,0-0.1,0.1-0.1c0-0.2,0-0.5,0-0.7h5.1
		l1.3,12.9H19.3z M26.4,35.8c0.4,0,0.7,0.3,0.7,0.7s-0.3,0.7-0.7,0.7s-0.7-0.3-0.7-0.7S26,35.8,26.4,35.8z M39.4,35.8
		c0.4,0,0.7,0.3,0.7,0.7s-0.3,0.7-0.7,0.7s-0.7-0.3-0.7-0.7S38.9,35.8,39.4,35.8z"/>
	<rect x="14.9" y="43" class="st1" width="1.4" height="1.4"/>
	<rect x="43.7" y="43" class="st1" width="1.4" height="1.4"/>
	<path class="st1" d="M15.7,46.6H3.5l0.1-2.2h9.8V43H3.7l1.2-20.8h2.2c0,0.2,0,0.5,0,0.7c0,0.1,0,0.1,0,0.1
		c-1.2,0.4-1.7,1.6-1.4,2.7s1.6,1.7,2.7,1.4s1.7-1.6,1.4-2.7c-0.2-0.6-0.7-1.1-1.4-1.4c0-0.1,0-0.1,0-0.1c0-0.2,0-0.5,0.1-0.7H20
		c0,0.2,0.1,0.5,0.1,0.7c0,0.1,0,0.1,0,0.1c-1.1,0.4-1.7,1.6-1.4,2.7c0.4,1.2,1.6,1.7,2.7,1.4s1.7-1.6,1.4-2.7
		c-0.2-0.6-0.7-1.2-1.4-1.4c0-0.1,0.1-0.1,0.1-0.1c0-0.2,0-0.5,0-0.7h2.2l0.4,8c0,0.4,0.4,0.6,0.7,0.6c0.4,0,0.7-0.3,0.7-0.7
		c0,0,0,0,0-0.1l-0.5-8.6c0-0.4-0.4-0.6-0.7-0.6h-3.2c-1.2-3.8-5.2-5.9-9-4.7c-2.2,0.7-4,2.4-4.7,4.7H4.2c-0.4,0-0.7,0.3-0.7,0.6
		L2,47.2c0,0.2,0.1,0.4,0.2,0.6C2.4,47.9,2.5,48,2.7,48h12.9c0.4,0,0.7-0.3,0.7-0.7S16.1,46.6,15.7,46.6z M7.8,25.7
		C7.3,25.7,7,25.4,7,25s0.3-0.7,0.7-0.7c0.4,0,0.7,0.3,0.7,0.7S8.2,25.7,7.8,25.7z M20.7,25.7c-0.4,0-0.7-0.3-0.7-0.7
		s0.3-0.7,0.7-0.7s0.7,0.3,0.7,0.7S21.1,25.7,20.7,25.7z M14.2,17.1c2.4,0,4.5,1.4,5.3,3.6H8.9C9.8,18.5,11.8,17.1,14.2,17.1z"/>
	<path class="st1" d="M21.6,18.5c0.4,0,0.7-0.3,0.7-0.6l0.6-9.4h2.2c0,0.2,0,0.5,0,0.7c0,0.1,0,0.1,0,0.1c-1.2,0.4-1.7,1.6-1.4,2.7
		s1.6,1.7,2.7,1.4c1.1-0.4,1.7-1.6,1.4-2.7c-0.2-0.6-0.7-1.2-1.4-1.4c0-0.1,0-0.1,0-0.1c0-0.2,0-0.5,0.1-0.7h11.4
		C37.9,8.7,38,9,38,9.2c0,0.1,0,0.1,0,0.1c-1.1,0.4-1.7,1.6-1.4,2.7s1.6,1.7,2.7,1.4c1.2-0.4,1.7-1.6,1.4-2.7
		c-0.2-0.6-0.7-1.2-1.4-1.4c0-0.1,0-0.1,0.1-0.1c0-0.2,0-0.5,0-0.7h2.2l1.2,21.6c0,0.4,0.4,0.6,0.7,0.6h0.1c0.4,0,0.7-0.4,0.6-0.8
		l0,0L43,7.7C43,7.3,42.6,7,42.3,7H39c-1.1-3.8-5.2-5.9-9-4.7c-2.2,0.7-4,2.4-4.7,4.7h-3.2c-0.4,0-0.7,0.3-0.7,0.6l-0.6,10.1
		C20.8,18.2,21.1,18.5,21.6,18.5L21.6,18.5z M25.7,12.1c-0.4,0-0.7-0.3-0.7-0.7s0.3-0.7,0.7-0.7s0.7,0.3,0.7,0.7
		S26.1,12.1,25.7,12.1z M38.7,12.1c-0.4,0-0.7-0.3-0.7-0.7s0.3-0.7,0.7-0.7s0.7,0.3,0.7,0.7S39.1,12.1,38.7,12.1z M32.2,3.4
		c2.4,0,4.5,1.4,5.3,3.6H26.9C27.7,4.9,29.8,3.4,32.2,3.4z"/>
	<rect x="3.4" y="2" class="st1" width="1.4" height="1.4"/>
	<rect x="3.4" y="4.9" class="st1" width="1.4" height="1.4"/>
	<rect x="2" y="3.4" class="st1" width="1.4" height="1.4"/>
	<rect x="4.9" y="3.4" class="st1" width="1.4" height="1.4"/>
	<rect x="15.7" y="4.9" class="st1" width="1.4" height="1.4"/>
	<rect x="15.7" y="7.8" class="st1" width="1.4" height="1.4"/>
	<rect x="14.2" y="6.3" class="st1" width="1.4" height="1.4"/>
	<rect x="17.1" y="6.3" class="st1" width="1.4" height="1.4"/>
	<rect x="45.1" y="2" class="st1" width="1.4" height="1.4"/>
	<rect x="45.1" y="4.9" class="st1" width="1.4" height="1.4"/>
	<rect x="43.7" y="3.4" class="st1" width="1.4" height="1.4"/>
	<rect x="46.6" y="3.4" class="st1" width="1.4" height="1.4"/>
	<rect x="5.6" y="12.1" class="st1" width="1.4" height="1.4"/>
	<rect x="5.6" y="14.9" class="st1" width="1.4" height="1.4"/>
	<rect x="4.2" y="13.5" class="st1" width="1.4" height="1.4"/>
	<rect x="7" y="13.5" class="st1" width="1.4" height="1.4"/>
	<path class="st1" d="M45.8,32.2h-6.1c-1.2-3.8-5.2-5.9-9-4.7c-2.2,0.7-4,2.4-4.7,4.7H20c-0.4,0-0.6,0.3-0.7,0.6l-1.4,14.4
		c0,0.2,0.1,0.4,0.2,0.6c0.1,0.1,0.4,0.2,0.5,0.2h28.8c0.2,0,0.4-0.1,0.5-0.2c0.1-0.1,0.2-0.4,0.2-0.6l-1.4-14.4
		C46.5,32.5,46.2,32.2,45.8,32.2z M32.9,28.6c2.4,0,4.5,1.4,5.3,3.6H27.6C28.4,30,30.5,28.6,32.9,28.6z M19.3,46.6l0.2-2.2h22.7V43
		H19.7l0.9-9.3h5.1c0,0.2,0,0.5,0,0.7c0,0.1,0,0.1,0,0.1c-1.1,0.4-1.7,1.6-1.4,2.7s1.6,1.7,2.7,1.4s1.7-1.6,1.4-2.7
		c-0.2-0.6-0.7-1.1-1.4-1.4c0-0.1,0-0.1,0-0.1c0-0.2,0-0.5,0.1-0.7h11.4c0,0.2,0.1,0.5,0.1,0.7c0,0.1,0,0.1,0,0.1
		c-1.1,0.4-1.7,1.6-1.4,2.7s1.6,1.7,2.7,1.4s1.7-1.6,1.4-2.7c-0.2-0.6-0.7-1.1-1.4-1.4c0-0.1,0-0.1,0.1-0.1c0-0.2,0-0.5,0-0.7h5.1
		l1.3,12.9H19.3z M26.4,35.8c0.4,0,0.7,0.3,0.7,0.7s-0.3,0.7-0.7,0.7s-0.7-0.3-0.7-0.7S26,35.8,26.4,35.8z M39.4,35.8
		c0.4,0,0.7,0.3,0.7,0.7s-0.3,0.7-0.7,0.7s-0.7-0.3-0.7-0.7S38.9,35.8,39.4,35.8z"/>
	<rect x="14.9" y="43" class="st1" width="1.4" height="1.4"/>
	<rect x="43.7" y="43" class="st1" width="1.4" height="1.4"/>
	<path class="st1" d="M15.7,46.6H3.5l0.1-2.2h9.8V43H3.7l1.2-20.8h2.2c0,0.2,0,0.5,0,0.7c0,0.1,0,0.1,0,0.1
		c-1.2,0.4-1.7,1.6-1.4,2.7s1.6,1.7,2.7,1.4s1.7-1.6,1.4-2.7c-0.2-0.6-0.7-1.1-1.4-1.4c0-0.1,0-0.1,0-0.1c0-0.2,0-0.5,0.1-0.7H20
		c0,0.2,0.1,0.5,0.1,0.7c0,0.1,0,0.1,0,0.1c-1.1,0.4-1.7,1.6-1.4,2.7c0.4,1.2,1.6,1.7,2.7,1.4s1.7-1.6,1.4-2.7
		c-0.2-0.6-0.7-1.2-1.4-1.4c0-0.1,0.1-0.1,0.1-0.1c0-0.2,0-0.5,0-0.7h2.2l0.4,8c0,0.4,0.4,0.6,0.7,0.6c0.4,0,0.7-0.3,0.7-0.7
		c0,0,0,0,0-0.1l-0.5-8.6c0-0.4-0.4-0.6-0.7-0.6h-3.2c-1.2-3.8-5.2-5.9-9-4.7c-2.2,0.7-4,2.4-4.7,4.7H4.2c-0.4,0-0.7,0.3-0.7,0.6
		L2,47.2c0,0.2,0.1,0.4,0.2,0.6C2.4,47.9,2.5,48,2.7,48h12.9c0.4,0,0.7-0.3,0.7-0.7S16.1,46.6,15.7,46.6z M7.8,25.7
		C7.3,25.7,7,25.4,7,25s0.3-0.7,0.7-0.7c0.4,0,0.7,0.3,0.7,0.7S8.2,25.7,7.8,25.7z M20.7,25.7c-0.4,0-0.7-0.3-0.7-0.7
		s0.3-0.7,0.7-0.7s0.7,0.3,0.7,0.7S21.1,25.7,20.7,25.7z M14.2,17.1c2.4,0,4.5,1.4,5.3,3.6H8.9C9.8,18.5,11.8,17.1,14.2,17.1z"/>
	<path class="st1" d="M21.6,18.5c0.4,0,0.7-0.3,0.7-0.6l0.6-9.4h2.2c0,0.2,0,0.5,0,0.7c0,0.1,0,0.1,0,0.1c-1.2,0.4-1.7,1.6-1.4,2.7
		s1.6,1.7,2.7,1.4c1.1-0.4,1.7-1.6,1.4-2.7c-0.2-0.6-0.7-1.2-1.4-1.4c0-0.1,0-0.1,0-0.1c0-0.2,0-0.5,0.1-0.7h11.4
		C37.9,8.7,38,9,38,9.2c0,0.1,0,0.1,0,0.1c-1.1,0.4-1.7,1.6-1.4,2.7s1.6,1.7,2.7,1.4c1.2-0.4,1.7-1.6,1.4-2.7
		c-0.2-0.6-0.7-1.2-1.4-1.4c0-0.1,0-0.1,0.1-0.1c0-0.2,0-0.5,0-0.7h2.2l1.2,21.6c0,0.4,0.4,0.6,0.7,0.6h0.1c0.4,0,0.7-0.4,0.6-0.8
		l0,0L43,7.7C43,7.3,42.6,7,42.3,7H39c-1.1-3.8-5.2-5.9-9-4.7c-2.2,0.7-4,2.4-4.7,4.7h-3.2c-0.4,0-0.7,0.3-0.7,0.6l-0.6,10.1
		C20.8,18.2,21.1,18.5,21.6,18.5L21.6,18.5z M25.7,12.1c-0.4,0-0.7-0.3-0.7-0.7s0.3-0.7,0.7-0.7s0.7,0.3,0.7,0.7
		S26.1,12.1,25.7,12.1z M38.7,12.1c-0.4,0-0.7-0.3-0.7-0.7s0.3-0.7,0.7-0.7s0.7,0.3,0.7,0.7S39.1,12.1,38.7,12.1z M32.2,3.4
		c2.4,0,4.5,1.4,5.3,3.6H26.9C27.7,4.9,29.8,3.4,32.2,3.4z"/>
	<rect x="3.4" y="2" class="st1" width="1.4" height="1.4"/>
	<rect x="3.4" y="4.9" class="st1" width="1.4" height="1.4"/>
	<rect x="2" y="3.4" class="st1" width="1.4" height="1.4"/>
	<rect x="4.9" y="3.4" class="st1" width="1.4" height="1.4"/>
	<rect x="15.7" y="4.9" class="st1" width="1.4" height="1.4"/>
	<rect x="15.7" y="7.8" class="st1" width="1.4" height="1.4"/>
	<rect x="14.2" y="6.3" class="st1" width="1.4" height="1.4"/>
	<rect x="17.1" y="6.3" class="st1" width="1.4" height="1.4"/>
	<rect x="45.1" y="2" class="st1" width="1.4" height="1.4"/>
	<rect x="45.1" y="4.9" class="st1" width="1.4" height="1.4"/>
	<rect x="43.7" y="3.4" class="st1" width="1.4" height="1.4"/>
	<rect x="46.6" y="3.4" class="st1" width="1.4" height="1.4"/>
	<rect x="5.6" y="12.1" class="st1" width="1.4" height="1.4"/>
	<rect x="5.6" y="14.9" class="st1" width="1.4" height="1.4"/>
	<rect x="4.2" y="13.5" class="st1" width="1.4" height="1.4"/>
	<rect x="7" y="13.5" class="st1" width="1.4" height="1.4"/>
</g>
</svg>
