<?xml version="1.0" encoding="utf-8"?>
<!-- Generator: Adobe Illustrator 22.1.0, SVG Export Plug-In . SVG Version: 6.00 Build 0)  -->
<svg version="1.1" id="Layer_1" xmlns="http://www.w3.org/2000/svg" xmlns:xlink="http://www.w3.org/1999/xlink" x="0px" y="0px"
	 viewBox="0 0 50 50" style="enable-background:new 0 0 50 50;" xml:space="preserve">
<style type="text/css">
	.st0{fill:#008660;}
	.st1{fill:none;stroke:#000000;stroke-miterlimit:10;}
</style>
<path class="st0" d="M-1111.7,32.8h5.4c0.3,0,0.6-0.3,0.6-0.6v-12c0-0.3-0.3-0.6-0.6-0.6h-5.4c-0.3,0-0.6,0.3-0.6,0.6v12
	C-1112.3,32.5-1112,32.8-1111.7,32.8z M-1111.1,20.8h4.3v10.8h-4.3V20.8z"/>
<path class="st0" d="M-1098.6,39c0.3,0,0.6-0.3,0.6-0.6V36c0-0.3-0.3-0.6-0.6-0.6c-0.3,0-0.6,0.3-0.6,0.6v2.4
	C-1099.2,38.7-1098.9,39-1098.6,39z"/>
<g>
	<path class="st1" d="M46.3,3.7h-9.3c-0.9,0-1.6,0.8-1.6,1.8v40.1c0,1,0.7,1.8,1.6,1.8h9.3c0.9,0,1.6-0.8,1.6-1.8V5.5
		C47.9,4.5,47.3,3.7,46.3,3.7z M36.6,13.5h10.2v24H36.6V13.5z M46.8,12.4H36.6V10h10.2L46.8,12.4L46.8,12.4z M36.6,38.7h10.2v2.4
		H36.6V38.7z M37.1,4.9h9.3c0.2,0,0.5,0.3,0.5,0.6v3.3H36.6V5.5C36.6,5.1,36.8,4.9,37.1,4.9z M46.3,46.1h-9.3
		c-0.2,0-0.5-0.3-0.5-0.6v-3.3h10.2v3.3C46.8,45.9,46.6,46.1,46.3,46.1z"/>
	<path class="st1" d="M3.3,45.5L3.3,45.5l9.2,1.7c0.1,0,0.2,0,0.3,0c0.3,0,0.7-0.1,1-0.3c0.3-0.3,0.6-0.7,0.7-1.1l7.2-37.8v37.6
		c0,1,0.7,1.8,1.6,1.8h9.3c0.9,0,1.6-0.8,1.6-1.8V5.4c0-1-0.7-1.8-1.6-1.8h-9.3c-0.8,0-1.4,0.6-1.5,1.4c-0.2-0.3-0.6-0.6-1-0.7
		l-9.2-1.7c-0.4-0.1-0.9,0.1-1.3,0.3C9.9,3.2,9.6,3.6,9.5,4L2,43.5C1.9,44.4,2.4,45.4,3.3,45.5z M22.7,13.5h10.2v24H22.7V13.5z
		 M22.7,38.7h10.2v2.4H22.7V38.7z M32.9,12.3H22.7V10h10.2V12.3z M32.5,46.1h-9.3c-0.2,0-0.5-0.3-0.5-0.6v-3.4h10.2v3.4
		C32.9,45.9,32.7,46.1,32.5,46.1z M23.2,4.9h9.3c0.2,0,0.5,0.3,0.5,0.6v3.3H22.7V5.5C22.7,5.1,22.9,4.9,23.2,4.9z M13.3,45.6
		c-0.1,0.2-0.1,0.3-0.2,0.4c-0.1,0.1-0.2,0.1-0.3,0.1l-9.2-1.7l0,0c-0.2-0.1-0.4-0.3-0.3-0.7l0.6-3.3l10.1,1.9L13.3,45.6z M7,23.5
		l10.1,1.9l-3,15.8L4,39.3L7,23.5z M19.4,13.1L9.4,11.1l0.5-2.3l10.1,1.9L19.4,13.1z M9.2,12.3l10.1,1.9l-2,10.1l-10-1.9L9.2,12.3z
		 M10.7,4.4C10.7,4.2,10.8,4,10.9,4C11,3.9,11,3.9,11.1,3.9h0.1l9.2,1.7c0.2,0.1,0.4,0.3,0.3,0.7l-0.6,3.3L10,7.7L10.7,4.4z"/>
	<path class="st1" d="M46.3,3.7h-9.3c-0.9,0-1.6,0.8-1.6,1.8v40.1c0,1,0.7,1.8,1.6,1.8h9.3c0.9,0,1.6-0.8,1.6-1.8V5.5
		C47.9,4.5,47.3,3.7,46.3,3.7z M36.6,13.5h10.2v24H36.6V13.5z M46.8,12.4H36.6V10h10.2L46.8,12.4L46.8,12.4z M36.6,38.7h10.2v2.4
		H36.6V38.7z M37.1,4.9h9.3c0.2,0,0.5,0.3,0.5,0.6v3.3H36.6V5.5C36.6,5.1,36.8,4.9,37.1,4.9z M46.3,46.1h-9.3
		c-0.2,0-0.5-0.3-0.5-0.6v-3.3h10.2v3.3C46.8,45.9,46.6,46.1,46.3,46.1z"/>
	<path class="st1" d="M3.3,45.5L3.3,45.5l9.2,1.7c0.1,0,0.2,0,0.3,0c0.3,0,0.7-0.1,1-0.3c0.3-0.3,0.6-0.7,0.7-1.1l7.2-37.8v37.6
		c0,1,0.7,1.8,1.6,1.8h9.3c0.9,0,1.6-0.8,1.6-1.8V5.4c0-1-0.7-1.8-1.6-1.8h-9.3c-0.8,0-1.4,0.6-1.5,1.4c-0.2-0.3-0.6-0.6-1-0.7
		l-9.2-1.7c-0.4-0.1-0.9,0.1-1.3,0.3C9.9,3.2,9.6,3.6,9.5,4L2,43.5C1.9,44.4,2.4,45.4,3.3,45.5z M22.7,13.5h10.2v24H22.7V13.5z
		 M22.7,38.7h10.2v2.4H22.7V38.7z M32.9,12.3H22.7V10h10.2V12.3z M32.5,46.1h-9.3c-0.2,0-0.5-0.3-0.5-0.6v-3.4h10.2v3.4
		C32.9,45.9,32.7,46.1,32.5,46.1z M23.2,4.9h9.3c0.2,0,0.5,0.3,0.5,0.6v3.3H22.7V5.5C22.7,5.1,22.9,4.9,23.2,4.9z M13.3,45.6
		c-0.1,0.2-0.1,0.3-0.2,0.4c-0.1,0.1-0.2,0.1-0.3,0.1l-9.2-1.7l0,0c-0.2-0.1-0.4-0.3-0.3-0.7l0.6-3.3l10.1,1.9L13.3,45.6z M7,23.5
		l10.1,1.9l-3,15.8L4,39.3L7,23.5z M19.4,13.1L9.4,11.1l0.5-2.3l10.1,1.9L19.4,13.1z M9.2,12.3l10.1,1.9l-2,10.1l-10-1.9L9.2,12.3z
		 M10.7,4.4C10.7,4.2,10.8,4,10.9,4C11,3.9,11,3.9,11.1,3.9h0.1l9.2,1.7c0.2,0.1,0.4,0.3,0.3,0.7l-0.6,3.3L10,7.7L10.7,4.4z"/>
</g>
</svg>
