<?xml version="1.0" encoding="utf-8"?>
<!-- Generator: Adobe Illustrator 22.1.0, SVG Export Plug-In . SVG Version: 6.00 Build 0)  -->
<svg version="1.1" id="Layer_1" xmlns="http://www.w3.org/2000/svg" xmlns:xlink="http://www.w3.org/1999/xlink" x="0px" y="0px"
	 viewBox="0 0 50 50" style="enable-background:new 0 0 50 50;" xml:space="preserve">
<style type="text/css">
	.st0{fill:#008660;}
	.st1{fill:none;stroke:#000000;stroke-miterlimit:10;}
</style>
<path class="st0" d="M-1111.7,32.8h5.4c0.3,0,0.6-0.3,0.6-0.6v-12c0-0.3-0.3-0.6-0.6-0.6h-5.4c-0.3,0-0.6,0.3-0.6,0.6v12
	C-1112.3,32.5-1112,32.8-1111.7,32.8z M-1111.1,20.8h4.3v10.8h-4.3V20.8z"/>
<path class="st0" d="M-1098.6,39c0.3,0,0.6-0.3,0.6-0.6V36c0-0.3-0.3-0.6-0.6-0.6c-0.3,0-0.6,0.3-0.6,0.6v2.4
	C-1099.2,38.7-1098.9,39-1098.6,39z"/>
<g>
	<g>
		<g>
			<path class="st1" d="M47.3,14.2c-1.2,0-2.2-1-2.2-2.2c0-0.4-0.3-0.7-0.7-0.7s-0.7,0.3-0.7,0.7c0,1.2-1,2.2-2.2,2.2
				c-0.4,0-0.7,0.3-0.7,0.7s0.3,0.7,0.7,0.7c1.2,0,2.2,1,2.2,2.2c0,0.4,0.3,0.7,0.7,0.7s0.7-0.3,0.7-0.7c0-1.2,1-2.2,2.2-2.2
				c0.4,0,0.7-0.3,0.7-0.7S47.7,14.2,47.3,14.2z M44.4,15.7c-0.2-0.3-0.5-0.6-0.8-0.8c0.3-0.2,0.6-0.5,0.8-0.8
				c0.2,0.3,0.5,0.6,0.8,0.8C44.9,15.1,44.7,15.4,44.4,15.7z"/>
		</g>
	</g>
	<g>
		<g>
			<path class="st1" d="M8.4,14.2c-1.2,0-2.2-1-2.2-2.2c0-0.4-0.3-0.7-0.7-0.7c-0.4,0-0.7,0.3-0.7,0.7c0,1.2-1,2.2-2.2,2.2
				c-0.4,0-0.7,0.3-0.7,0.7s0.3,0.7,0.7,0.7c1.2,0,2.2,1,2.2,2.2c0,0.4,0.3,0.7,0.7,0.7s0.7-0.3,0.7-0.7c0-1.2,1-2.2,2.2-2.2
				c0.4,0,0.7-0.3,0.7-0.7S8.8,14.2,8.4,14.2z M5.6,15.7c-0.2-0.3-0.5-0.6-0.8-0.8c0.3-0.2,0.6-0.5,0.8-0.8c0.2,0.3,0.5,0.6,0.8,0.8
				C6,15.1,5.8,15.4,5.6,15.7z"/>
		</g>
	</g>
	<g>
		<g>
			<path class="st1" d="M28.6,5.6c-1.6,0-2.9-1.3-2.9-2.9C25.7,2.3,25.4,2,25,2c-0.4,0-0.7,0.3-0.7,0.7c0,1.6-1.3,2.9-2.9,2.9
				c-0.4,0-0.7,0.3-0.7,0.7C20.7,6.6,21,7,21.4,7c1.6,0,2.9,1.3,2.9,2.9c0,0.4,0.3,0.7,0.7,0.7c0.4,0,0.7-0.3,0.7-0.7
				C25.7,8.3,27,7,28.6,7c0.4,0,0.7-0.3,0.7-0.7C29.3,5.9,29,5.6,28.6,5.6z M25,7.6c-0.3-0.5-0.8-1-1.3-1.3c0.5-0.3,1-0.8,1.3-1.3
				c0.3,0.5,0.8,1,1.3,1.3C25.8,6.6,25.3,7.1,25,7.6z"/>
		</g>
	</g>
	<g>
		<g>
			<path class="st1" d="M39.1,24.8l-2.6-7.4c-0.2-0.6-0.7-0.9-1.3-0.9H14.7c-0.6,0-1.1,0.4-1.3,0.9l-2.6,7.4
				c-0.2,0.4,0.2,0.9,0.6,0.9h27c0.2,0,0.4-0.1,0.6-0.3C39.1,25.2,39.1,25,39.1,24.8z M12.4,24.3l2.3-6.5c0,0,0,0,0,0h20.4
				c0,0,0,0,0,0l2.3,6.5H12.4z"/>
		</g>
	</g>
	<g>
		<g>
			<path class="st1" d="M37.9,33.7c-2.4,0-4.3,1.2-4.3,2.8c0,1.6,1.9,2.8,4.3,2.8c2.4,0,4.3-1.2,4.3-2.8
				C42.1,34.9,40.3,33.7,37.9,33.7z M37.9,38c-1.7,0-2.9-0.8-2.9-1.5c0-0.7,1.3-1.5,2.9-1.5c1.7,0,2.9,0.8,2.9,1.5
				C40.8,37.2,39.5,38,37.9,38z"/>
		</g>
	</g>
	<g>
		<g>
			<path class="st1" d="M11.9,33.7c-2.4,0-4.3,1.2-4.3,2.8c0,1.6,1.9,2.8,4.3,2.8s4.3-1.2,4.3-2.8C16.2,34.9,14.3,33.7,11.9,33.7z
				 M11.9,38C10.3,38,9,37.2,9,36.5c0-0.7,1.3-1.5,2.9-1.5s2.9,0.8,2.9,1.5C14.9,37.2,13.6,38,11.9,38z"/>
		</g>
	</g>
	<g>
		<g>
			<path class="st1" d="M46.5,23.6h-3.6c-0.3,0-0.6,0.2-0.7,0.5L41.8,26l-3.3-9.4c-0.5-1.4-1.8-2.4-3.4-2.4H14.7
				c-1.5,0-2.9,1-3.4,2.4L8,26l-0.5-1.9c-0.1-0.3-0.3-0.5-0.7-0.5H3.3c-0.4,0-0.7,0.3-0.7,0.7v2.9c0,0.4,0.3,0.7,0.7,0.7H7l-2.3,3.2
				c-0.4,0.6-0.7,1.3-0.7,2.1v8.4c0,1.2,0.6,2.2,1.4,2.9c0,0,0,0,0,0v2.2c0,0.8,0.6,1.4,1.4,1.4h4.3c0.8,0,1.4-0.6,1.4-1.4v-1.5
				h24.6v1.5c0,0.8,0.6,1.4,1.4,1.4h4.3c0.8,0,1.4-0.6,1.4-1.4v-2.2c0,0,0,0,0,0c0.9-0.6,1.4-1.7,1.4-2.9v-8.4
				c0-0.7-0.2-1.5-0.7-2.1l-2.3-3.2h3.7c0.4,0,0.7-0.3,0.7-0.7v-2.9C47.2,23.9,46.9,23.6,46.5,23.6z M4,26.5V25h2.4l0.4,1.5H4z
				 M11.3,46.6C11.3,46.6,11.3,46.6,11.3,46.6l-4.4,0c0,0,0,0,0,0v-1.5h0.8h3.6L11.3,46.6z M43,46.6C43,46.6,42.9,46.6,43,46.6
				l-4.4,0c0,0,0,0,0,0v-1.5h3.6H43V46.6z M42.2,43.8H7.6c-1,0-1.8-0.6-2.1-1.5h38.8C44,43.1,43.2,43.8,42.2,43.8z M30.7,36.5V38
				H19.1v-1.5H30.7z M19.2,35.1c0.3-0.9,1.1-1.5,2.1-1.5h7.2c1,0,1.8,0.6,2.1,1.5H19.2z M30.7,39.4v1.5H19.1v-1.5H30.7z M44,31.8
				c0.3,0.4,0.4,0.8,0.4,1.3v7.8H32.1v-5.1c0-2-1.6-3.6-3.6-3.6h-7.2c-2,0-3.6,1.6-3.6,3.6v5.1H5.4v-7.8c0-0.5,0.1-0.9,0.4-1.3
				l2.9-4h24.9c0.4,0,0.7-0.3,0.7-0.7s-0.3-0.7-0.7-0.7H9.3l3.3-9.4c0.3-0.9,1.1-1.5,2.1-1.5h20.4c0.9,0,1.8,0.6,2.1,1.5l3.3,9.4
				h-4.1c-0.4,0-0.7,0.3-0.7,0.7s0.3,0.7,0.7,0.7h4.7L44,31.8z M45.8,26.5h-2.8l0.4-1.5h2.4V26.5z"/>
		</g>
	</g>
	<g>
		<g>
			<path class="st1" d="M14.1,31.5H9.8c-0.4,0-0.7,0.3-0.7,0.7c0,0.4,0.3,0.7,0.7,0.7h4.3c0.4,0,0.7-0.3,0.7-0.7
				C14.8,31.8,14.5,31.5,14.1,31.5z"/>
		</g>
	</g>
	<g>
		<g>
			<path class="st1" d="M40,31.5h-4.3c-0.4,0-0.7,0.3-0.7,0.7c0,0.4,0.3,0.7,0.7,0.7H40c0.4,0,0.7-0.3,0.7-0.7
				C40.7,31.8,40.4,31.5,40,31.5z"/>
		</g>
	</g>
	<g>
		<g>
			<path class="st1" d="M47.3,14.2c-1.2,0-2.2-1-2.2-2.2c0-0.4-0.3-0.7-0.7-0.7s-0.7,0.3-0.7,0.7c0,1.2-1,2.2-2.2,2.2
				c-0.4,0-0.7,0.3-0.7,0.7s0.3,0.7,0.7,0.7c1.2,0,2.2,1,2.2,2.2c0,0.4,0.3,0.7,0.7,0.7s0.7-0.3,0.7-0.7c0-1.2,1-2.2,2.2-2.2
				c0.4,0,0.7-0.3,0.7-0.7S47.7,14.2,47.3,14.2z M44.4,15.7c-0.2-0.3-0.5-0.6-0.8-0.8c0.3-0.2,0.6-0.5,0.8-0.8
				c0.2,0.3,0.5,0.6,0.8,0.8C44.9,15.1,44.7,15.4,44.4,15.7z"/>
		</g>
	</g>
	<g>
		<g>
			<path class="st1" d="M8.4,14.2c-1.2,0-2.2-1-2.2-2.2c0-0.4-0.3-0.7-0.7-0.7c-0.4,0-0.7,0.3-0.7,0.7c0,1.2-1,2.2-2.2,2.2
				c-0.4,0-0.7,0.3-0.7,0.7s0.3,0.7,0.7,0.7c1.2,0,2.2,1,2.2,2.2c0,0.4,0.3,0.7,0.7,0.7s0.7-0.3,0.7-0.7c0-1.2,1-2.2,2.2-2.2
				c0.4,0,0.7-0.3,0.7-0.7S8.8,14.2,8.4,14.2z M5.6,15.7c-0.2-0.3-0.5-0.6-0.8-0.8c0.3-0.2,0.6-0.5,0.8-0.8c0.2,0.3,0.5,0.6,0.8,0.8
				C6,15.1,5.8,15.4,5.6,15.7z"/>
		</g>
	</g>
	<g>
		<g>
			<path class="st1" d="M28.6,5.6c-1.6,0-2.9-1.3-2.9-2.9C25.7,2.3,25.4,2,25,2c-0.4,0-0.7,0.3-0.7,0.7c0,1.6-1.3,2.9-2.9,2.9
				c-0.4,0-0.7,0.3-0.7,0.7C20.7,6.6,21,7,21.4,7c1.6,0,2.9,1.3,2.9,2.9c0,0.4,0.3,0.7,0.7,0.7c0.4,0,0.7-0.3,0.7-0.7
				C25.7,8.3,27,7,28.6,7c0.4,0,0.7-0.3,0.7-0.7C29.3,5.9,29,5.6,28.6,5.6z M25,7.6c-0.3-0.5-0.8-1-1.3-1.3c0.5-0.3,1-0.8,1.3-1.3
				c0.3,0.5,0.8,1,1.3,1.3C25.8,6.6,25.3,7.1,25,7.6z"/>
		</g>
	</g>
	<g>
		<g>
			<path class="st1" d="M39.1,24.8l-2.6-7.4c-0.2-0.6-0.7-0.9-1.3-0.9H14.7c-0.6,0-1.1,0.4-1.3,0.9l-2.6,7.4
				c-0.2,0.4,0.2,0.9,0.6,0.9h27c0.2,0,0.4-0.1,0.6-0.3C39.1,25.2,39.1,25,39.1,24.8z M12.4,24.3l2.3-6.5c0,0,0,0,0,0h20.4
				c0,0,0,0,0,0l2.3,6.5H12.4z"/>
		</g>
	</g>
	<g>
		<g>
			<path class="st1" d="M37.9,33.7c-2.4,0-4.3,1.2-4.3,2.8c0,1.6,1.9,2.8,4.3,2.8c2.4,0,4.3-1.2,4.3-2.8
				C42.1,34.9,40.3,33.7,37.9,33.7z M37.9,38c-1.7,0-2.9-0.8-2.9-1.5c0-0.7,1.3-1.5,2.9-1.5c1.7,0,2.9,0.8,2.9,1.5
				C40.8,37.2,39.5,38,37.9,38z"/>
		</g>
	</g>
	<g>
		<g>
			<path class="st1" d="M11.9,33.7c-2.4,0-4.3,1.2-4.3,2.8c0,1.6,1.9,2.8,4.3,2.8s4.3-1.2,4.3-2.8C16.2,34.9,14.3,33.7,11.9,33.7z
				 M11.9,38C10.3,38,9,37.2,9,36.5c0-0.7,1.3-1.5,2.9-1.5s2.9,0.8,2.9,1.5C14.9,37.2,13.6,38,11.9,38z"/>
		</g>
	</g>
	<g>
		<g>
			<path class="st1" d="M46.5,23.6h-3.6c-0.3,0-0.6,0.2-0.7,0.5L41.8,26l-3.3-9.4c-0.5-1.4-1.8-2.4-3.4-2.4H14.7
				c-1.5,0-2.9,1-3.4,2.4L8,26l-0.5-1.9c-0.1-0.3-0.3-0.5-0.7-0.5H3.3c-0.4,0-0.7,0.3-0.7,0.7v2.9c0,0.4,0.3,0.7,0.7,0.7H7l-2.3,3.2
				c-0.4,0.6-0.7,1.3-0.7,2.1v8.4c0,1.2,0.6,2.2,1.4,2.9c0,0,0,0,0,0v2.2c0,0.8,0.6,1.4,1.4,1.4h4.3c0.8,0,1.4-0.6,1.4-1.4v-1.5
				h24.6v1.5c0,0.8,0.6,1.4,1.4,1.4h4.3c0.8,0,1.4-0.6,1.4-1.4v-2.2c0,0,0,0,0,0c0.9-0.6,1.4-1.7,1.4-2.9v-8.4
				c0-0.7-0.2-1.5-0.7-2.1l-2.3-3.2h3.7c0.4,0,0.7-0.3,0.7-0.7v-2.9C47.2,23.9,46.9,23.6,46.5,23.6z M4,26.5V25h2.4l0.4,1.5H4z
				 M11.3,46.6C11.3,46.6,11.3,46.6,11.3,46.6l-4.4,0c0,0,0,0,0,0v-1.5h0.8h3.6L11.3,46.6z M43,46.6C43,46.6,42.9,46.6,43,46.6
				l-4.4,0c0,0,0,0,0,0v-1.5h3.6H43V46.6z M42.2,43.8H7.6c-1,0-1.8-0.6-2.1-1.5h38.8C44,43.1,43.2,43.8,42.2,43.8z M30.7,36.5V38
				H19.1v-1.5H30.7z M19.2,35.1c0.3-0.9,1.1-1.5,2.1-1.5h7.2c1,0,1.8,0.6,2.1,1.5H19.2z M30.7,39.4v1.5H19.1v-1.5H30.7z M44,31.8
				c0.3,0.4,0.4,0.8,0.4,1.3v7.8H32.1v-5.1c0-2-1.6-3.6-3.6-3.6h-7.2c-2,0-3.6,1.6-3.6,3.6v5.1H5.4v-7.8c0-0.5,0.1-0.9,0.4-1.3
				l2.9-4h24.9c0.4,0,0.7-0.3,0.7-0.7s-0.3-0.7-0.7-0.7H9.3l3.3-9.4c0.3-0.9,1.1-1.5,2.1-1.5h20.4c0.9,0,1.8,0.6,2.1,1.5l3.3,9.4
				h-4.1c-0.4,0-0.7,0.3-0.7,0.7s0.3,0.7,0.7,0.7h4.7L44,31.8z M45.8,26.5h-2.8l0.4-1.5h2.4V26.5z"/>
		</g>
	</g>
	<g>
		<g>
			<path class="st1" d="M14.1,31.5H9.8c-0.4,0-0.7,0.3-0.7,0.7c0,0.4,0.3,0.7,0.7,0.7h4.3c0.4,0,0.7-0.3,0.7-0.7
				C14.8,31.8,14.5,31.5,14.1,31.5z"/>
		</g>
	</g>
	<g>
		<g>
			<path class="st1" d="M40,31.5h-4.3c-0.4,0-0.7,0.3-0.7,0.7c0,0.4,0.3,0.7,0.7,0.7H40c0.4,0,0.7-0.3,0.7-0.7
				C40.7,31.8,40.4,31.5,40,31.5z"/>
		</g>
	</g>
</g>
</svg>
