<?xml version="1.0" encoding="utf-8"?>
<!-- Generator: Adobe Illustrator 22.1.0, SVG Export Plug-In . SVG Version: 6.00 Build 0)  -->
<svg version="1.1" id="Layer_1" xmlns="http://www.w3.org/2000/svg" xmlns:xlink="http://www.w3.org/1999/xlink" x="0px" y="0px"
	 viewBox="0 0 50 50" style="enable-background:new 0 0 50 50;" xml:space="preserve">
<style type="text/css">
	.st0{fill:#008660;}
	.st1{fill:none;stroke:#000000;stroke-miterlimit:10;}
</style>
<path class="st0" d="M-1111.7,32.8h5.4c0.3,0,0.6-0.3,0.6-0.6v-12c0-0.3-0.3-0.6-0.6-0.6h-5.4c-0.3,0-0.6,0.3-0.6,0.6v12
	C-1112.3,32.5-1112,32.8-1111.7,32.8z M-1111.1,20.8h4.3v10.8h-4.3V20.8z"/>
<path class="st0" d="M-1098.6,39c0.3,0,0.6-0.3,0.6-0.6V36c0-0.3-0.3-0.6-0.6-0.6c-0.3,0-0.6,0.3-0.6,0.6v2.4
	C-1099.2,38.7-1098.9,39-1098.6,39z"/>
<g>
	<path class="st1" d="M39.4,15.8H41V19h-1.6V15.8z"/>
	<path class="st1" d="M36.2,15.8h1.6V19h-1.6V15.8z"/>
	<path class="st1" d="M33,15.8h1.6V19H33V15.8z"/>
	<path class="st1" d="M29.8,15.8h1.6V19h-1.6V15.8z"/>
	<path class="st1" d="M39.4,31H41v1.6h-1.6V31z"/>
	<path class="st1" d="M36.2,31h1.6v1.6h-1.6V31z"/>
	<path class="st1" d="M33,31h1.6v1.6H33V31z"/>
	<path class="st1" d="M29.8,31h1.6v1.6h-1.6V31z"/>
	<path class="st1" d="M3.4,28.5v4.9c0,2.2,1.8,4,4,4h14.5l14.2,6.8c0.9,0.4,1.9,0.5,2.9,0.2c0.9-0.3,1.7-1,2.1-1.9l2.5-5.2
		c1.8-0.4,3-2,3.1-3.9v-2.5l2-4.3c0.9-1.9,0.1-4.1-1.8-5l-0.3-0.1v-5.7c0-2.2-1.8-4-4-4H26.5l-12.6-6C13,5.3,12,5.3,11,5.6
		c-0.9,0.3-1.7,1-2.1,1.9l-2.1,4.3c-2,0.3-3.5,1.9-3.5,3.9v3.3l-2,4.3c-0.9,1.9-0.1,4.1,1.8,5L3.4,28.5z M46.6,23.3
		c0.8,0.6,1,1.7,0.6,2.6l-0.6,1.2V23.3z M39.6,41.8c-0.2,0.5-0.7,0.9-1.2,1.1c-0.5,0.2-1.1,0.2-1.6-0.1l-11.2-5.4h16.2L39.6,41.8z
		 M45,33.4c0,1.3-1.1,2.4-2.4,2.4H16.2v-9.3c1.8,1.7,4.2,2.7,6.6,2.7v-1.6c-2.1,0-4-0.8-5.5-2.2H45V33.4z M16.9,23.3l1.6-4
		c0.3-0.8,1.1-1.2,1.9-1.1c0.8,0.1,1.5,0.8,1.6,1.6c0.1,0.8-0.4,1.6-1.1,1.9L16.9,23.3z M42.6,13.4c1.3,0,2.4,1.1,2.4,2.4v8H20
		l1.5-0.6c1.5-0.6,2.3-2.1,2.1-3.6c-0.2-1.5-1.4-2.8-3-3c-1.5-0.2-3,0.7-3.6,2.1l-0.8,2.1v-7.5H42.6z M10.4,8.2
		c0.2-0.5,0.7-0.9,1.2-1.1c0.5-0.2,1.1-0.2,1.6,0.1l9.6,4.6H8.7L10.4,8.2z M5,15.8c0-1.3,1.1-2.4,2.4-2.4h7.2v6.9L14,18.8
		c-0.6-1.4-2.1-2.3-3.6-2.1c-1.5,0.2-2.8,1.4-3,3c-0.2,1.5,0.7,3,2.1,3.6l1.5,0.6H5V15.8z M14.1,23.3l-3.9-1.6
		c-0.8-0.3-1.2-1.1-1.1-1.9s0.7-1.5,1.6-1.6c0.8-0.1,1.6,0.4,1.9,1.1L14.1,23.3z M5,25.4h8.7c-1.5,1.4-3.5,2.2-5.5,2.2v1.6
		c2.4,0,4.6-0.9,6.4-2.5v9H7.4c-1.3,0-2.4-1.1-2.4-2.4V25.4z M2.8,24.1l0.6-1.2v3.8C2.6,26.1,2.4,25,2.8,24.1z"/>
	<path class="st1" d="M39.4,15.8H41V19h-1.6V15.8z"/>
	<path class="st1" d="M36.2,15.8h1.6V19h-1.6V15.8z"/>
	<path class="st1" d="M33,15.8h1.6V19H33V15.8z"/>
	<path class="st1" d="M29.8,15.8h1.6V19h-1.6V15.8z"/>
	<path class="st1" d="M39.4,31H41v1.6h-1.6V31z"/>
	<path class="st1" d="M36.2,31h1.6v1.6h-1.6V31z"/>
	<path class="st1" d="M33,31h1.6v1.6H33V31z"/>
	<path class="st1" d="M29.8,31h1.6v1.6h-1.6V31z"/>
	<path class="st1" d="M3.4,28.5v4.9c0,2.2,1.8,4,4,4h14.5l14.2,6.8c0.9,0.4,1.9,0.5,2.9,0.2c0.9-0.3,1.7-1,2.1-1.9l2.5-5.2
		c1.8-0.4,3-2,3.1-3.9v-2.5l2-4.3c0.9-1.9,0.1-4.1-1.8-5l-0.3-0.1v-5.7c0-2.2-1.8-4-4-4H26.5l-12.6-6C13,5.3,12,5.3,11,5.6
		c-0.9,0.3-1.7,1-2.1,1.9l-2.1,4.3c-2,0.3-3.5,1.9-3.5,3.9v3.3l-2,4.3c-0.9,1.9-0.1,4.1,1.8,5L3.4,28.5z M46.6,23.3
		c0.8,0.6,1,1.7,0.6,2.6l-0.6,1.2V23.3z M39.6,41.8c-0.2,0.5-0.7,0.9-1.2,1.1c-0.5,0.2-1.1,0.2-1.6-0.1l-11.2-5.4h16.2L39.6,41.8z
		 M45,33.4c0,1.3-1.1,2.4-2.4,2.4H16.2v-9.3c1.8,1.7,4.2,2.7,6.6,2.7v-1.6c-2.1,0-4-0.8-5.5-2.2H45V33.4z M16.9,23.3l1.6-4
		c0.3-0.8,1.1-1.2,1.9-1.1c0.8,0.1,1.5,0.8,1.6,1.6c0.1,0.8-0.4,1.6-1.1,1.9L16.9,23.3z M42.6,13.4c1.3,0,2.4,1.1,2.4,2.4v8H20
		l1.5-0.6c1.5-0.6,2.3-2.1,2.1-3.6c-0.2-1.5-1.4-2.8-3-3c-1.5-0.2-3,0.7-3.6,2.1l-0.8,2.1v-7.5H42.6z M10.4,8.2
		c0.2-0.5,0.7-0.9,1.2-1.1c0.5-0.2,1.1-0.2,1.6,0.1l9.6,4.6H8.7L10.4,8.2z M5,15.8c0-1.3,1.1-2.4,2.4-2.4h7.2v6.9L14,18.8
		c-0.6-1.4-2.1-2.3-3.6-2.1c-1.5,0.2-2.8,1.4-3,3c-0.2,1.5,0.7,3,2.1,3.6l1.5,0.6H5V15.8z M14.1,23.3l-3.9-1.6
		c-0.8-0.3-1.2-1.1-1.1-1.9s0.7-1.5,1.6-1.6c0.8-0.1,1.6,0.4,1.9,1.1L14.1,23.3z M5,25.4h8.7c-1.5,1.4-3.5,2.2-5.5,2.2v1.6
		c2.4,0,4.6-0.9,6.4-2.5v9H7.4c-1.3,0-2.4-1.1-2.4-2.4V25.4z M2.8,24.1l0.6-1.2v3.8C2.6,26.1,2.4,25,2.8,24.1z"/>
</g>
</svg>
