<?xml version="1.0" encoding="utf-8"?>
<!-- Generator: Adobe Illustrator 22.1.0, SVG Export Plug-In . SVG Version: 6.00 Build 0)  -->
<svg version="1.1" id="Layer_1" xmlns="http://www.w3.org/2000/svg" xmlns:xlink="http://www.w3.org/1999/xlink" x="0px" y="0px"
	 viewBox="0 0 50 50" style="enable-background:new 0 0 50 50;" xml:space="preserve">
<style type="text/css">
	.st0{fill:#008660;}
	.st1{fill:none;stroke:#000000;stroke-miterlimit:10;}
</style>
<path class="st0" d="M-1111.7,32.8h5.4c0.3,0,0.6-0.3,0.6-0.6v-12c0-0.3-0.3-0.6-0.6-0.6h-5.4c-0.3,0-0.6,0.3-0.6,0.6v12
	C-1112.3,32.5-1112,32.8-1111.7,32.8z M-1111.1,20.8h4.3v10.8h-4.3V20.8z"/>
<path class="st0" d="M-1098.6,39c0.3,0,0.6-0.3,0.6-0.6V36c0-0.3-0.3-0.6-0.6-0.6c-0.3,0-0.6,0.3-0.6,0.6v2.4
	C-1099.2,38.7-1098.9,39-1098.6,39z"/>
<g>
	<g>
		<rect x="13.9" y="15.1" class="st1" width="24.2" height="1.7"/>
	</g>
	<g>
		<rect x="13.9" y="19.8" class="st1" width="25.5" height="1.7"/>
	</g>
	<g>
		<rect x="13.9" y="23.8" class="st1" width="27.9" height="1.7"/>
	</g>
	<g>
		<rect x="13.9" y="28.8" class="st1" width="30.2" height="1.7"/>
	</g>
	<g>
		<path class="st1" d="M21.9,44.2c-2,0-3.6-1.6-3.6-3.6c0-2,1.6-3.6,3.6-3.6s3.6,1.6,3.6,3.6C25.5,42.6,23.9,44.2,21.9,44.2z
			 M21.9,38.6c-1.1,0-2,0.9-2,2c0,1.1,0.9,2,2,2s2-0.9,2-2C23.8,39.5,23,38.6,21.9,38.6z"/>
	</g>
	<g>
		<path class="st1" d="M39,44.2c-2,0-3.6-1.6-3.6-3.6c0-2,1.6-3.6,3.6-3.6s3.6,1.6,3.6,3.6C42.6,42.6,41,44.2,39,44.2z M39,38.6
			c-1.1,0-2,0.9-2,2c0,1.1,0.9,2,2,2c1.1,0,2-0.9,2-2C41,39.5,40.1,38.6,39,38.6z"/>
	</g>
	<g>
		<path class="st1" d="M48,35.5H12.7v-25C12.5,9.8,12,8,10.9,7.5c-1-0.4-2.4,0.4-3.4,1.2l-1-1.3c1.9-1.5,3.6-2,5-1.4
			c2.3,0.9,2.8,4.2,2.8,4.3l0,0.1v23.4H48V35.5z"/>
	</g>
	<g>
		<path class="st1" d="M5.2,12.4C3.5,12.4,2.1,11,2,9.2C1.9,7.4,3.2,5.9,5,5.8c1.8-0.1,3.3,1.3,3.4,3.1c0,0.9-0.2,1.7-0.8,2.4
			c-0.6,0.7-1.3,1.1-2.2,1.1C5.3,12.4,5.2,12.4,5.2,12.4z M5.2,7.4L5.2,7.4C4.2,7.5,3.6,8.2,3.7,9.1c0,0.9,0.7,1.6,1.5,1.6l0.1,0
			c0.4,0,0.8-0.2,1-0.5C6.6,9.8,6.7,9.4,6.7,9C6.6,8.1,6,7.4,5.2,7.4z"/>
	</g>
	<g>
		<rect x="13.9" y="15.1" class="st1" width="24.2" height="1.7"/>
	</g>
	<g>
		<rect x="13.9" y="19.8" class="st1" width="25.5" height="1.7"/>
	</g>
	<g>
		<rect x="13.9" y="23.8" class="st1" width="27.9" height="1.7"/>
	</g>
	<g>
		<rect x="13.9" y="28.8" class="st1" width="30.2" height="1.7"/>
	</g>
	<g>
		<path class="st1" d="M21.9,44.2c-2,0-3.6-1.6-3.6-3.6c0-2,1.6-3.6,3.6-3.6s3.6,1.6,3.6,3.6C25.5,42.6,23.9,44.2,21.9,44.2z
			 M21.9,38.6c-1.1,0-2,0.9-2,2c0,1.1,0.9,2,2,2s2-0.9,2-2C23.8,39.5,23,38.6,21.9,38.6z"/>
	</g>
	<g>
		<path class="st1" d="M39,44.2c-2,0-3.6-1.6-3.6-3.6c0-2,1.6-3.6,3.6-3.6s3.6,1.6,3.6,3.6C42.6,42.6,41,44.2,39,44.2z M39,38.6
			c-1.1,0-2,0.9-2,2c0,1.1,0.9,2,2,2c1.1,0,2-0.9,2-2C41,39.5,40.1,38.6,39,38.6z"/>
	</g>
	<g>
		<path class="st1" d="M48,35.5H12.7v-25C12.5,9.8,12,8,10.9,7.5c-1-0.4-2.4,0.4-3.4,1.2l-1-1.3c1.9-1.5,3.6-2,5-1.4
			c2.3,0.9,2.8,4.2,2.8,4.3l0,0.1v23.4H48V35.5z"/>
	</g>
	<g>
		<path class="st1" d="M5.2,12.4C3.5,12.4,2.1,11,2,9.2C1.9,7.4,3.2,5.9,5,5.8c1.8-0.1,3.3,1.3,3.4,3.1c0,0.9-0.2,1.7-0.8,2.4
			c-0.6,0.7-1.3,1.1-2.2,1.1C5.3,12.4,5.2,12.4,5.2,12.4z M5.2,7.4L5.2,7.4C4.2,7.5,3.6,8.2,3.7,9.1c0,0.9,0.7,1.6,1.5,1.6l0.1,0
			c0.4,0,0.8-0.2,1-0.5C6.6,9.8,6.7,9.4,6.7,9C6.6,8.1,6,7.4,5.2,7.4z"/>
	</g>
</g>
</svg>
