<?xml version="1.0" encoding="utf-8"?>
<!-- Generator: Adobe Illustrator 22.1.0, SVG Export Plug-In . SVG Version: 6.00 Build 0)  -->
<svg version="1.1" id="Layer_1" xmlns="http://www.w3.org/2000/svg" xmlns:xlink="http://www.w3.org/1999/xlink" x="0px" y="0px"
	 viewBox="0 0 50 50" style="enable-background:new 0 0 50 50;" xml:space="preserve">
<style type="text/css">
	.st0{fill:#008660;}
	.st1{fill:none;stroke:#000000;stroke-miterlimit:10;}
</style>
<path class="st0" d="M-1111.7,32.8h5.4c0.3,0,0.6-0.3,0.6-0.6v-12c0-0.3-0.3-0.6-0.6-0.6h-5.4c-0.3,0-0.6,0.3-0.6,0.6v12
	C-1112.3,32.5-1112,32.8-1111.7,32.8z M-1111.1,20.8h4.3v10.8h-4.3V20.8z"/>
<path class="st0" d="M-1098.6,39c0.3,0,0.6-0.3,0.6-0.6V36c0-0.3-0.3-0.6-0.6-0.6c-0.3,0-0.6,0.3-0.6,0.6v2.4
	C-1099.2,38.7-1098.9,39-1098.6,39z"/>
<g>
	<path class="st1" d="M42.1,37.7H31c-0.3,0-0.6,0.3-0.6,0.6s0.3,0.6,0.6,0.6h11c0.3,0,0.6-0.3,0.6-0.6S42.4,37.7,42.1,37.7z"/>
	<path class="st1" d="M42.1,41.6H31c-0.3,0-0.6,0.3-0.6,0.6c0,0.3,0.3,0.6,0.6,0.6h11c0.3,0,0.6-0.3,0.6-0.6
		C42.6,41.8,42.4,41.6,42.1,41.6z"/>
	<path class="st1" d="M33.5,26.1h6.1c0.3,0,0.6-0.3,0.6-0.6c0-0.3-0.3-0.6-0.6-0.6h-6.1c-0.3,0-0.6,0.3-0.6,0.6
		C32.9,25.8,33.2,26.1,33.5,26.1z"/>
	<path class="st1" d="M33.5,29.2h6.1c0.3,0,0.6-0.3,0.6-0.6c0-0.3-0.3-0.6-0.6-0.6h-6.1c-0.3,0-0.6,0.3-0.6,0.6
		C32.9,29,33.2,29.2,33.5,29.2z"/>
	<path class="st1" d="M30,28.8v1.7c0,0.2,0.1,0.4,0.3,0.5l1.5,0.8l0.8,1.5c0.1,0.2,0.3,0.3,0.5,0.3h1.7l1.5,0.8
		c0.1,0.1,0.2,0.1,0.3,0.1c0.1,0,0.2,0,0.3-0.1l1.5-0.8H40c0.2,0,0.4-0.1,0.5-0.3l0.8-1.5l1.5-0.8c0.2-0.1,0.3-0.3,0.3-0.5v-1.7
		l0.8-1.5c0.1-0.2,0.1-0.4,0-0.6L43,25.3v-1.7c0-0.2-0.1-0.4-0.3-0.5l-1.5-0.8l-0.8-1.5c-0.1-0.2-0.3-0.3-0.5-0.3h-1.7l-1.5-0.8
		c-0.2-0.1-0.4-0.1-0.6,0l-1.5,0.8h-1.7c-0.2,0-0.4,0.1-0.5,0.3l-0.8,1.5l-1.5,0.8c-0.2,0.1-0.3,0.3-0.3,0.5v1.7l-0.8,1.5
		c-0.1,0.2-0.1,0.4,0,0.6L30,28.8z M31.1,25.8c0.1-0.1,0.1-0.2,0.1-0.3V24l1.3-0.8c0.1-0.1,0.2-0.1,0.2-0.2l0.8-1.3h1.5
		c0.1,0,0.2,0,0.3-0.1l1.3-0.8l1.3,0.8c0.1,0.1,0.2,0.1,0.3,0.1h1.5l0.8,1.3c0.1,0.1,0.1,0.2,0.2,0.2l1.3,0.8v1.5
		c0,0.1,0,0.2,0.1,0.3l0.8,1.3L42,28.4c-0.1,0.1-0.1,0.2-0.1,0.3v1.5l-1.3,0.8c-0.1,0.1-0.2,0.1-0.2,0.2l-0.8,1.3h-1.5
		c-0.1,0-0.2,0-0.3,0.1l-1.3,0.8l-1.3-0.8c-0.1-0.1-0.2-0.1-0.3-0.1h-1.5l-0.8-1.3c-0.1-0.1-0.1-0.2-0.2-0.2l-1.3-0.8v-1.5
		c0-0.1,0-0.2-0.1-0.3l-0.8-1.3L31.1,25.8z"/>
	<path class="st1" d="M47.4,15h-13V2.6c0,0,0-0.1,0-0.1c0,0,0-0.1,0-0.1c0,0,0-0.1-0.1-0.1c0,0,0-0.1-0.1-0.1c0,0-0.1-0.1-0.1-0.1
		c0,0,0,0-0.1,0c0,0,0,0,0,0C34,2,34,2,34,2c0,0-0.1,0-0.1,0c0,0,0,0,0,0H2.6c0,0,0,0,0,0c0,0-0.1,0-0.1,0c0,0-0.1,0-0.1,0
		c0,0,0,0,0,0c0,0,0,0-0.1,0c0,0-0.1,0-0.1,0.1c0,0,0,0.1-0.1,0.1c0,0,0,0.1-0.1,0.1c0,0,0,0.1,0,0.1c0,0,0,0,0,0.1v42.1
		c0,0.3,0.3,0.6,0.6,0.6h22.5v2.2c0,0.3,0.3,0.6,0.6,0.6h21.8c0.3,0,0.6-0.3,0.6-0.6V15.5C48,15.2,47.7,15,47.4,15z M32.9,3.2
		L30.2,8h-24L3.5,3.2H32.9z M3.2,44.1V4.8l2.2,4c0.1,0.2,0.3,0.3,0.5,0.3h24.7c0.2,0,0.4-0.1,0.5-0.3l2.2-4V15h-7.6
		c-0.3,0-0.6,0.3-0.6,0.6v15.4h-4.5c-0.3,0-0.6,0.3-0.6,0.6s0.3,0.6,0.6,0.6h4.5v3h-4.5c-0.3,0-0.6,0.3-0.6,0.6s0.3,0.6,0.6,0.6h4.5
		v3h-4.5c-0.3,0-0.6,0.3-0.6,0.6s0.3,0.6,0.6,0.6h4.5v3.8H3.2z M46.8,46.8H26.2V16.1h20.6V46.8z"/>
	<path class="st1" d="M17.2,39.2h-0.5V34h0.5c0.2,0,0.5-0.2,0.5-0.4c0.1-0.2,0-0.5-0.2-0.6l-5.4-4.3c-0.2-0.2-0.5-0.2-0.7,0L6,32.9
		c-0.2,0.2-0.3,0.4-0.2,0.6C5.9,33.8,6.1,34,6.4,34h0.5v5.2H6.4c-0.3,0-0.6,0.3-0.6,0.6s0.3,0.6,0.6,0.6h10.9c0.3,0,0.6-0.3,0.6-0.6
		S17.5,39.2,17.2,39.2z M15.6,39.2h-1.7V34h1.7V39.2z M12.7,34v5.2h-1.7V34H12.7z M11.8,29.8l3.8,3H8L11.8,29.8z M8,34h1.7v5.2H8V34
		z"/>
	<path class="st1" d="M42.1,37.7H31c-0.3,0-0.6,0.3-0.6,0.6s0.3,0.6,0.6,0.6h11c0.3,0,0.6-0.3,0.6-0.6S42.4,37.7,42.1,37.7z"/>
	<path class="st1" d="M42.1,41.6H31c-0.3,0-0.6,0.3-0.6,0.6c0,0.3,0.3,0.6,0.6,0.6h11c0.3,0,0.6-0.3,0.6-0.6
		C42.6,41.8,42.4,41.6,42.1,41.6z"/>
	<path class="st1" d="M33.5,26.1h6.1c0.3,0,0.6-0.3,0.6-0.6c0-0.3-0.3-0.6-0.6-0.6h-6.1c-0.3,0-0.6,0.3-0.6,0.6
		C32.9,25.8,33.2,26.1,33.5,26.1z"/>
	<path class="st1" d="M33.5,29.2h6.1c0.3,0,0.6-0.3,0.6-0.6c0-0.3-0.3-0.6-0.6-0.6h-6.1c-0.3,0-0.6,0.3-0.6,0.6
		C32.9,29,33.2,29.2,33.5,29.2z"/>
	<path class="st1" d="M30,28.8v1.7c0,0.2,0.1,0.4,0.3,0.5l1.5,0.8l0.8,1.5c0.1,0.2,0.3,0.3,0.5,0.3h1.7l1.5,0.8
		c0.1,0.1,0.2,0.1,0.3,0.1c0.1,0,0.2,0,0.3-0.1l1.5-0.8H40c0.2,0,0.4-0.1,0.5-0.3l0.8-1.5l1.5-0.8c0.2-0.1,0.3-0.3,0.3-0.5v-1.7
		l0.8-1.5c0.1-0.2,0.1-0.4,0-0.6L43,25.3v-1.7c0-0.2-0.1-0.4-0.3-0.5l-1.5-0.8l-0.8-1.5c-0.1-0.2-0.3-0.3-0.5-0.3h-1.7l-1.5-0.8
		c-0.2-0.1-0.4-0.1-0.6,0l-1.5,0.8h-1.7c-0.2,0-0.4,0.1-0.5,0.3l-0.8,1.5l-1.5,0.8c-0.2,0.1-0.3,0.3-0.3,0.5v1.7l-0.8,1.5
		c-0.1,0.2-0.1,0.4,0,0.6L30,28.8z M31.1,25.8c0.1-0.1,0.1-0.2,0.1-0.3V24l1.3-0.8c0.1-0.1,0.2-0.1,0.2-0.2l0.8-1.3h1.5
		c0.1,0,0.2,0,0.3-0.1l1.3-0.8l1.3,0.8c0.1,0.1,0.2,0.1,0.3,0.1h1.5l0.8,1.3c0.1,0.1,0.1,0.2,0.2,0.2l1.3,0.8v1.5
		c0,0.1,0,0.2,0.1,0.3l0.8,1.3L42,28.4c-0.1,0.1-0.1,0.2-0.1,0.3v1.5l-1.3,0.8c-0.1,0.1-0.2,0.1-0.2,0.2l-0.8,1.3h-1.5
		c-0.1,0-0.2,0-0.3,0.1l-1.3,0.8l-1.3-0.8c-0.1-0.1-0.2-0.1-0.3-0.1h-1.5l-0.8-1.3c-0.1-0.1-0.1-0.2-0.2-0.2l-1.3-0.8v-1.5
		c0-0.1,0-0.2-0.1-0.3l-0.8-1.3L31.1,25.8z"/>
	<path class="st1" d="M47.4,15h-13V2.6c0,0,0-0.1,0-0.1c0,0,0-0.1,0-0.1c0,0,0-0.1-0.1-0.1c0,0,0-0.1-0.1-0.1c0,0-0.1-0.1-0.1-0.1
		c0,0,0,0-0.1,0c0,0,0,0,0,0C34,2,34,2,34,2c0,0-0.1,0-0.1,0c0,0,0,0,0,0H2.6c0,0,0,0,0,0c0,0-0.1,0-0.1,0c0,0-0.1,0-0.1,0
		c0,0,0,0,0,0c0,0,0,0-0.1,0c0,0-0.1,0-0.1,0.1c0,0,0,0.1-0.1,0.1c0,0,0,0.1-0.1,0.1c0,0,0,0.1,0,0.1c0,0,0,0,0,0.1v42.1
		c0,0.3,0.3,0.6,0.6,0.6h22.5v2.2c0,0.3,0.3,0.6,0.6,0.6h21.8c0.3,0,0.6-0.3,0.6-0.6V15.5C48,15.2,47.7,15,47.4,15z M32.9,3.2
		L30.2,8h-24L3.5,3.2H32.9z M3.2,44.1V4.8l2.2,4c0.1,0.2,0.3,0.3,0.5,0.3h24.7c0.2,0,0.4-0.1,0.5-0.3l2.2-4V15h-7.6
		c-0.3,0-0.6,0.3-0.6,0.6v15.4h-4.5c-0.3,0-0.6,0.3-0.6,0.6s0.3,0.6,0.6,0.6h4.5v3h-4.5c-0.3,0-0.6,0.3-0.6,0.6s0.3,0.6,0.6,0.6h4.5
		v3h-4.5c-0.3,0-0.6,0.3-0.6,0.6s0.3,0.6,0.6,0.6h4.5v3.8H3.2z M46.8,46.8H26.2V16.1h20.6V46.8z"/>
	<path class="st1" d="M17.2,39.2h-0.5V34h0.5c0.2,0,0.5-0.2,0.5-0.4c0.1-0.2,0-0.5-0.2-0.6l-5.4-4.3c-0.2-0.2-0.5-0.2-0.7,0L6,32.9
		c-0.2,0.2-0.3,0.4-0.2,0.6C5.9,33.8,6.1,34,6.4,34h0.5v5.2H6.4c-0.3,0-0.6,0.3-0.6,0.6s0.3,0.6,0.6,0.6h10.9c0.3,0,0.6-0.3,0.6-0.6
		S17.5,39.2,17.2,39.2z M15.6,39.2h-1.7V34h1.7V39.2z M12.7,34v5.2h-1.7V34H12.7z M11.8,29.8l3.8,3H8L11.8,29.8z M8,34h1.7v5.2H8V34
		z"/>
</g>
</svg>
