<?xml version="1.0" encoding="utf-8"?>
<!-- Generator: Adobe Illustrator 22.1.0, SVG Export Plug-In . SVG Version: 6.00 Build 0)  -->
<svg version="1.1" id="Layer_1" xmlns="http://www.w3.org/2000/svg" xmlns:xlink="http://www.w3.org/1999/xlink" x="0px" y="0px"
	 viewBox="0 0 50 50" style="enable-background:new 0 0 50 50;" xml:space="preserve">
<style type="text/css">
	.st0{fill:#008660;}
	.st1{fill:none;stroke:#000000;stroke-miterlimit:10;}
</style>
<path class="st0" d="M-1111.7,32.8h5.4c0.3,0,0.6-0.3,0.6-0.6v-12c0-0.3-0.3-0.6-0.6-0.6h-5.4c-0.3,0-0.6,0.3-0.6,0.6v12
	C-1112.3,32.5-1112,32.8-1111.7,32.8z M-1111.1,20.8h4.3v10.8h-4.3V20.8z"/>
<path class="st0" d="M-1098.6,39c0.3,0,0.6-0.3,0.6-0.6V36c0-0.3-0.3-0.6-0.6-0.6c-0.3,0-0.6,0.3-0.6,0.6v2.4
	C-1099.2,38.7-1098.9,39-1098.6,39z"/>
<g>
	<g>
		<path class="st1" d="M27.4,31.8c-3.8,0-6.8-3.1-6.8-6.8s3.1-6.8,6.8-6.8s6.8,3.1,6.8,6.8S31.2,31.8,27.4,31.8z M27.4,18.9
			c-3.4,0-6.1,2.7-6.1,6.1s2.7,6.1,6.1,6.1s6.1-2.7,6.1-6.1S30.8,18.9,27.4,18.9z"/>
	</g>
	<g>
		<g>
			<path class="st1" d="M46.2,49H8.7c-0.2,0-0.4-0.2-0.4-0.4V43c0-0.2,0.2-0.4,0.4-0.4C8.9,42.7,9,42.8,9,43v5.2h36.8V1.7H9v28.4
				c0,0.2-0.2,0.4-0.4,0.4c-0.2,0-0.4-0.2-0.4-0.4V1.4C8.3,1.2,8.5,1,8.7,1h37.5c0.2,0,0.4,0.2,0.4,0.4v47.3
				C46.6,48.8,46.4,49,46.2,49z"/>
		</g>
		<g>
			<path class="st1" d="M41.2,14.7H13.7c-0.2,0-0.4-0.2-0.4-0.4V1.4c0-0.2,0.2-0.4,0.4-0.4h27.4c0.2,0,0.4,0.2,0.4,0.4v12.9
				C41.5,14.5,41.4,14.7,41.2,14.7z M14.1,13.9h26.7V1.7H14.1V13.9z"/>
		</g>
		<g>
			<path class="st1" d="M41.2,49H13.7c-0.2,0-0.4-0.2-0.4-0.4v-6.1c0-0.2,0.2-0.4,0.4-0.4c0.2,0,0.4,0.2,0.4,0.4v5.8h26.7V36.1H17.2
				c-0.2,0-0.4-0.2-0.4-0.4c0-0.2,0.2-0.4,0.4-0.4h24c0.2,0,0.4,0.2,0.4,0.4v12.9C41.5,48.8,41.4,49,41.2,49z"/>
		</g>
		<g>
			<path class="st1" d="M46.2,25.4H8.7c-0.2,0-0.4-0.2-0.4-0.4s0.2-0.4,0.4-0.4h37.5c0.2,0,0.4,0.2,0.4,0.4S46.4,25.4,46.2,25.4z"/>
		</g>
		<g>
			<path class="st1" d="M27.6,11.6c-0.1,0-0.2,0-0.3,0c-3.8,0-6.5-1-8.1-3.1c-2.3-3-1.2-7.1-1.1-7.3C18.1,1.1,18.3,1,18.5,1
				c0.2,0.1,0.3,0.3,0.3,0.5c0,0-1.1,3.9,1,6.7c1.4,1.8,3.9,2.8,7.5,2.8c0.1,0,0.2,0,0.3,0c3.6,0,6.1-0.9,7.6-2.8
				c2.1-2.7,1.1-6.6,1.1-6.6c-0.1-0.2,0.1-0.4,0.3-0.5C36.7,1,36.9,1.1,37,1.3c0,0.2,1.1,4.3-1.2,7.3C34.2,10.6,31.4,11.6,27.6,11.6
				z"/>
		</g>
		<g>
			<path class="st1" d="M18.4,49c-0.2,0-0.3-0.1-0.4-0.3c0-0.2-1.2-4.3,1.1-7.3c1.6-2.1,4.4-3.1,8.3-3.1c3.9,0,6.7,1,8.3,3.1
				c2.3,3,1.3,7.1,1.2,7.3c-0.1,0.2-0.3,0.3-0.5,0.3c-0.2-0.1-0.3-0.3-0.3-0.5c0,0,1-3.9-1.1-6.6c-1.4-1.9-4-2.8-7.6-2.8
				c-0.1,0-0.2,0-0.3,0c-3.6,0-6.1,0.9-7.5,2.8c-2.1,2.7-1,6.6-1,6.7c0.1,0.2-0.1,0.4-0.3,0.5C18.4,49,18.4,49,18.4,49z"/>
		</g>
	</g>
	<g>
		<g>
			<g>
				<g>
					<g>
						<path class="st1" d="M10.5,33.1c-0.1,0-0.2,0-0.2-0.1L8,31c-0.1-0.1-0.2-0.3-0.1-0.4L8,30.1c0-0.1,0.1-0.2,0.2-0.2
							c1.5-0.5,3.1-0.5,4.5,0c0.1,0,0.2,0.1,0.2,0.2l0.1,0.5c0,0.1,0,0.3-0.1,0.4l-2.3,2C10.7,33.1,10.6,33.1,10.5,33.1z M8.6,30.6
							l1.9,1.7l1.9-1.7l0-0.1C11.2,30.2,9.9,30.2,8.6,30.6L8.6,30.6z"/>
					</g>
				</g>
				<g>
					<g>
						<path class="st1" d="M4.2,37.3c-0.1,0-0.2,0-0.2-0.1L3.6,37c-0.1-0.1-0.1-0.2-0.2-0.3c0,0,0-0.1,0-0.1c0-1.5,0.5-3,1.4-4.2
							c0.1-0.1,0.2-0.1,0.3-0.1h0.5c0.1,0,0.3,0.1,0.3,0.2l1.2,2.8c0.1,0.2,0,0.4-0.2,0.5l-2.6,1.5C4.3,37.3,4.3,37.3,4.2,37.3z
							 M4.2,36.5L4.2,36.5l2.2-1.2l-1-2.3H5.3C4.6,34,4.2,35.2,4.2,36.5z"/>
					</g>
				</g>
				<g>
					<g>
						<path class="st1" d="M8.5,43.4c0,0-0.1,0-0.1,0c-1.5-0.5-2.8-1.4-3.6-2.6c-0.1-0.1-0.1-0.2-0.1-0.3l0.1-0.5
							c0-0.1,0.2-0.2,0.3-0.3l3-0.3c0.2,0,0.4,0.1,0.4,0.3l0.6,3c0,0.1,0,0.3-0.1,0.4l-0.4,0.3C8.6,43.3,8.6,43.4,8.5,43.4z
							 M5.5,40.4c0.8,1,1.8,1.8,3,2.2l0,0l-0.5-2.4L5.5,40.4L5.5,40.4z"/>
					</g>
				</g>
				<g>
					<g>
						<path class="st1" d="M12.5,43.4c-0.1,0-0.2,0-0.2-0.1L11.9,43c-0.1-0.1-0.2-0.2-0.1-0.4l0.6-3c0-0.2,0.2-0.3,0.4-0.3l3,0.3
							c0.1,0,0.3,0.1,0.3,0.3l0.1,0.5c0,0.1,0,0.2-0.1,0.3c-0.9,1.3-2.2,2.2-3.6,2.6C12.6,43.4,12.5,43.4,12.5,43.4z M12.5,42.6
							L12.5,42.6c1.2-0.4,2.3-1.1,3-2.1l0-0.1l-2.5-0.3L12.5,42.6z"/>
					</g>
				</g>
				<g>
					<g>
						<path class="st1" d="M16.8,37.3c-0.1,0-0.1,0-0.2-0.1L14,35.7c-0.2-0.1-0.2-0.3-0.2-0.5l1.2-2.8c0.1-0.1,0.2-0.2,0.3-0.2h0.5
							c0.1,0,0.2,0.1,0.3,0.1c0.9,1.2,1.4,2.7,1.4,4.2c0,0,0,0.1,0,0.1c0,0.1-0.1,0.2-0.2,0.3L17,37.3C17,37.3,16.9,37.3,16.8,37.3z
							 M17.2,36.7L17.2,36.7L17.2,36.7z M14.6,35.3l2.2,1.3l0,0c0-1.3-0.4-2.5-1.1-3.5h-0.1L14.6,35.3z"/>
					</g>
				</g>
			</g>
			<g>
				<path class="st1" d="M10.5,43.7c-3.9,0-7.1-3.2-7.1-7.1s3.2-7.1,7.1-7.1s7.1,3.2,7.1,7.1S14.4,43.7,10.5,43.7z M10.5,30.3
					c-3.5,0-6.3,2.8-6.3,6.3s2.8,6.3,6.3,6.3s6.3-2.8,6.3-6.3S14,30.3,10.5,30.3z"/>
			</g>
		</g>
		<g>
			<path class="st1" d="M11.7,38.7H9.3c-0.2,0-0.3-0.1-0.4-0.3l-0.8-2.3c0-0.2,0-0.3,0.1-0.4l2-1.4c0.1-0.1,0.3-0.1,0.4,0l2,1.4
				c0.1,0.1,0.2,0.3,0.1,0.4l-0.8,2.3C12,38.6,11.9,38.7,11.7,38.7z M9.5,37.9h1.9l0.6-1.8L10.5,35l-1.6,1.1L9.5,37.9z"/>
		</g>
		<g>
			<path class="st1" d="M10.5,34.9c-0.2,0-0.4-0.2-0.4-0.4v-1.8c0-0.2,0.2-0.4,0.4-0.4s0.4,0.2,0.4,0.4v1.8
				C10.9,34.7,10.7,34.9,10.5,34.9z"/>
		</g>
		<g>
			<path class="st1" d="M8.5,36.3c0,0-0.1,0-0.1,0l-1.7-0.5c-0.2-0.1-0.3-0.3-0.2-0.5C6.6,35.1,6.8,35,7,35.1l1.7,0.5
				c0.2,0.1,0.3,0.3,0.2,0.5C8.8,36.2,8.7,36.3,8.5,36.3z"/>
		</g>
		<g>
			<path class="st1" d="M8.2,40.1c-0.1,0-0.2,0-0.2-0.1c-0.2-0.1-0.2-0.4-0.1-0.5l1-1.4c0.1-0.2,0.4-0.2,0.5-0.1
				c0.2,0.1,0.2,0.4,0.1,0.5l-1,1.4C8.5,40,8.4,40.1,8.2,40.1z"/>
		</g>
		<g>
			<path class="st1" d="M12.8,40.1c-0.1,0-0.2-0.1-0.3-0.2l-1-1.4c-0.1-0.2-0.1-0.4,0.1-0.5c0.2-0.1,0.4-0.1,0.5,0.1l1,1.4
				c0.1,0.2,0.1,0.4-0.1,0.5C12.9,40.1,12.8,40.1,12.8,40.1z"/>
		</g>
		<g>
			<path class="st1" d="M12.5,36.3c-0.2,0-0.3-0.1-0.4-0.3c-0.1-0.2,0-0.4,0.2-0.5l1.7-0.5c0.2-0.1,0.4,0,0.5,0.2
				c0.1,0.2,0,0.4-0.2,0.5l-1.7,0.5C12.6,36.3,12.5,36.3,12.5,36.3z"/>
		</g>
	</g>
	<g>
		<path class="st1" d="M27.4,31.8c-3.8,0-6.8-3.1-6.8-6.8s3.1-6.8,6.8-6.8s6.8,3.1,6.8,6.8S31.2,31.8,27.4,31.8z M27.4,18.9
			c-3.4,0-6.1,2.7-6.1,6.1s2.7,6.1,6.1,6.1s6.1-2.7,6.1-6.1S30.8,18.9,27.4,18.9z"/>
	</g>
	<g>
		<g>
			<path class="st1" d="M46.2,49H8.7c-0.2,0-0.4-0.2-0.4-0.4V43c0-0.2,0.2-0.4,0.4-0.4C8.9,42.7,9,42.8,9,43v5.2h36.8V1.7H9v28.4
				c0,0.2-0.2,0.4-0.4,0.4c-0.2,0-0.4-0.2-0.4-0.4V1.4C8.3,1.2,8.5,1,8.7,1h37.5c0.2,0,0.4,0.2,0.4,0.4v47.3
				C46.6,48.8,46.4,49,46.2,49z"/>
		</g>
		<g>
			<path class="st1" d="M41.2,14.7H13.7c-0.2,0-0.4-0.2-0.4-0.4V1.4c0-0.2,0.2-0.4,0.4-0.4h27.4c0.2,0,0.4,0.2,0.4,0.4v12.9
				C41.5,14.5,41.4,14.7,41.2,14.7z M14.1,13.9h26.7V1.7H14.1V13.9z"/>
		</g>
		<g>
			<path class="st1" d="M41.2,49H13.7c-0.2,0-0.4-0.2-0.4-0.4v-6.1c0-0.2,0.2-0.4,0.4-0.4c0.2,0,0.4,0.2,0.4,0.4v5.8h26.7V36.1H17.2
				c-0.2,0-0.4-0.2-0.4-0.4c0-0.2,0.2-0.4,0.4-0.4h24c0.2,0,0.4,0.2,0.4,0.4v12.9C41.5,48.8,41.4,49,41.2,49z"/>
		</g>
		<g>
			<path class="st1" d="M46.2,25.4H8.7c-0.2,0-0.4-0.2-0.4-0.4s0.2-0.4,0.4-0.4h37.5c0.2,0,0.4,0.2,0.4,0.4S46.4,25.4,46.2,25.4z"/>
		</g>
		<g>
			<path class="st1" d="M27.6,11.6c-0.1,0-0.2,0-0.3,0c-3.8,0-6.5-1-8.1-3.1c-2.3-3-1.2-7.1-1.1-7.3C18.1,1.1,18.3,1,18.5,1
				c0.2,0.1,0.3,0.3,0.3,0.5c0,0-1.1,3.9,1,6.7c1.4,1.8,3.9,2.8,7.5,2.8c0.1,0,0.2,0,0.3,0c3.6,0,6.1-0.9,7.6-2.8
				c2.1-2.7,1.1-6.6,1.1-6.6c-0.1-0.2,0.1-0.4,0.3-0.5C36.7,1,36.9,1.1,37,1.3c0,0.2,1.1,4.3-1.2,7.3C34.2,10.6,31.4,11.6,27.6,11.6
				z"/>
		</g>
		<g>
			<path class="st1" d="M18.4,49c-0.2,0-0.3-0.1-0.4-0.3c0-0.2-1.2-4.3,1.1-7.3c1.6-2.1,4.4-3.1,8.3-3.1c3.9,0,6.7,1,8.3,3.1
				c2.3,3,1.3,7.1,1.2,7.3c-0.1,0.2-0.3,0.3-0.5,0.3c-0.2-0.1-0.3-0.3-0.3-0.5c0,0,1-3.9-1.1-6.6c-1.4-1.9-4-2.8-7.6-2.8
				c-0.1,0-0.2,0-0.3,0c-3.6,0-6.1,0.9-7.5,2.8c-2.1,2.7-1,6.6-1,6.7c0.1,0.2-0.1,0.4-0.3,0.5C18.4,49,18.4,49,18.4,49z"/>
		</g>
	</g>
	<g>
		<g>
			<g>
				<g>
					<g>
						<path class="st1" d="M10.5,33.1c-0.1,0-0.2,0-0.2-0.1L8,31c-0.1-0.1-0.2-0.3-0.1-0.4L8,30.1c0-0.1,0.1-0.2,0.2-0.2
							c1.5-0.5,3.1-0.5,4.5,0c0.1,0,0.2,0.1,0.2,0.2l0.1,0.5c0,0.1,0,0.3-0.1,0.4l-2.3,2C10.7,33.1,10.6,33.1,10.5,33.1z M8.6,30.6
							l1.9,1.7l1.9-1.7l0-0.1C11.2,30.2,9.9,30.2,8.6,30.6L8.6,30.6z"/>
					</g>
				</g>
				<g>
					<g>
						<path class="st1" d="M4.2,37.3c-0.1,0-0.2,0-0.2-0.1L3.6,37c-0.1-0.1-0.1-0.2-0.2-0.3c0,0,0-0.1,0-0.1c0-1.5,0.5-3,1.4-4.2
							c0.1-0.1,0.2-0.1,0.3-0.1h0.5c0.1,0,0.3,0.1,0.3,0.2l1.2,2.8c0.1,0.2,0,0.4-0.2,0.5l-2.6,1.5C4.3,37.3,4.3,37.3,4.2,37.3z
							 M4.2,36.5L4.2,36.5l2.2-1.2l-1-2.3H5.3C4.6,34,4.2,35.2,4.2,36.5z"/>
					</g>
				</g>
				<g>
					<g>
						<path class="st1" d="M8.5,43.4c0,0-0.1,0-0.1,0c-1.5-0.5-2.8-1.4-3.6-2.6c-0.1-0.1-0.1-0.2-0.1-0.3l0.1-0.5
							c0-0.1,0.2-0.2,0.3-0.3l3-0.3c0.2,0,0.4,0.1,0.4,0.3l0.6,3c0,0.1,0,0.3-0.1,0.4l-0.4,0.3C8.6,43.3,8.6,43.4,8.5,43.4z
							 M5.5,40.4c0.8,1,1.8,1.8,3,2.2l0,0l-0.5-2.4L5.5,40.4L5.5,40.4z"/>
					</g>
				</g>
				<g>
					<g>
						<path class="st1" d="M12.5,43.4c-0.1,0-0.2,0-0.2-0.1L11.9,43c-0.1-0.1-0.2-0.2-0.1-0.4l0.6-3c0-0.2,0.2-0.3,0.4-0.3l3,0.3
							c0.1,0,0.3,0.1,0.3,0.3l0.1,0.5c0,0.1,0,0.2-0.1,0.3c-0.9,1.3-2.2,2.2-3.6,2.6C12.6,43.4,12.5,43.4,12.5,43.4z M12.5,42.6
							L12.5,42.6c1.2-0.4,2.3-1.1,3-2.1l0-0.1l-2.5-0.3L12.5,42.6z"/>
					</g>
				</g>
				<g>
					<g>
						<path class="st1" d="M16.8,37.3c-0.1,0-0.1,0-0.2-0.1L14,35.7c-0.2-0.1-0.2-0.3-0.2-0.5l1.2-2.8c0.1-0.1,0.2-0.2,0.3-0.2h0.5
							c0.1,0,0.2,0.1,0.3,0.1c0.9,1.2,1.4,2.7,1.4,4.2c0,0,0,0.1,0,0.1c0,0.1-0.1,0.2-0.2,0.3L17,37.3C17,37.3,16.9,37.3,16.8,37.3z
							 M17.2,36.7L17.2,36.7L17.2,36.7z M14.6,35.3l2.2,1.3l0,0c0-1.3-0.4-2.5-1.1-3.5h-0.1L14.6,35.3z"/>
					</g>
				</g>
			</g>
			<g>
				<path class="st1" d="M10.5,43.7c-3.9,0-7.1-3.2-7.1-7.1s3.2-7.1,7.1-7.1s7.1,3.2,7.1,7.1S14.4,43.7,10.5,43.7z M10.5,30.3
					c-3.5,0-6.3,2.8-6.3,6.3s2.8,6.3,6.3,6.3s6.3-2.8,6.3-6.3S14,30.3,10.5,30.3z"/>
			</g>
		</g>
		<g>
			<path class="st1" d="M11.7,38.7H9.3c-0.2,0-0.3-0.1-0.4-0.3l-0.8-2.3c0-0.2,0-0.3,0.1-0.4l2-1.4c0.1-0.1,0.3-0.1,0.4,0l2,1.4
				c0.1,0.1,0.2,0.3,0.1,0.4l-0.8,2.3C12,38.6,11.9,38.7,11.7,38.7z M9.5,37.9h1.9l0.6-1.8L10.5,35l-1.6,1.1L9.5,37.9z"/>
		</g>
		<g>
			<path class="st1" d="M10.5,34.9c-0.2,0-0.4-0.2-0.4-0.4v-1.8c0-0.2,0.2-0.4,0.4-0.4s0.4,0.2,0.4,0.4v1.8
				C10.9,34.7,10.7,34.9,10.5,34.9z"/>
		</g>
		<g>
			<path class="st1" d="M8.5,36.3c0,0-0.1,0-0.1,0l-1.7-0.5c-0.2-0.1-0.3-0.3-0.2-0.5C6.6,35.1,6.8,35,7,35.1l1.7,0.5
				c0.2,0.1,0.3,0.3,0.2,0.5C8.8,36.2,8.7,36.3,8.5,36.3z"/>
		</g>
		<g>
			<path class="st1" d="M8.2,40.1c-0.1,0-0.2,0-0.2-0.1c-0.2-0.1-0.2-0.4-0.1-0.5l1-1.4c0.1-0.2,0.4-0.2,0.5-0.1
				c0.2,0.1,0.2,0.4,0.1,0.5l-1,1.4C8.5,40,8.4,40.1,8.2,40.1z"/>
		</g>
		<g>
			<path class="st1" d="M12.8,40.1c-0.1,0-0.2-0.1-0.3-0.2l-1-1.4c-0.1-0.2-0.1-0.4,0.1-0.5c0.2-0.1,0.4-0.1,0.5,0.1l1,1.4
				c0.1,0.2,0.1,0.4-0.1,0.5C12.9,40.1,12.8,40.1,12.8,40.1z"/>
		</g>
		<g>
			<path class="st1" d="M12.5,36.3c-0.2,0-0.3-0.1-0.4-0.3c-0.1-0.2,0-0.4,0.2-0.5l1.7-0.5c0.2-0.1,0.4,0,0.5,0.2
				c0.1,0.2,0,0.4-0.2,0.5l-1.7,0.5C12.6,36.3,12.5,36.3,12.5,36.3z"/>
		</g>
	</g>
</g>
</svg>
