<?xml version="1.0" encoding="utf-8"?>
<!-- Generator: Adobe Illustrator 22.1.0, SVG Export Plug-In . SVG Version: 6.00 Build 0)  -->
<svg version="1.1" id="Layer_1" xmlns="http://www.w3.org/2000/svg" xmlns:xlink="http://www.w3.org/1999/xlink" x="0px" y="0px"
	 viewBox="0 0 50 50" style="enable-background:new 0 0 50 50;" xml:space="preserve">
<style type="text/css">
	.st0{fill:#008660;}
	.st1{fill:none;stroke:#000000;stroke-miterlimit:10;}
</style>
<path class="st0" d="M-1111.7,32.8h5.4c0.3,0,0.6-0.3,0.6-0.6v-12c0-0.3-0.3-0.6-0.6-0.6h-5.4c-0.3,0-0.6,0.3-0.6,0.6v12
	C-1112.3,32.5-1112,32.8-1111.7,32.8z M-1111.1,20.8h4.3v10.8h-4.3V20.8z"/>
<path class="st0" d="M-1098.6,39c0.3,0,0.6-0.3,0.6-0.6V36c0-0.3-0.3-0.6-0.6-0.6c-0.3,0-0.6,0.3-0.6,0.6v2.4
	C-1099.2,38.7-1098.9,39-1098.6,39z"/>
<g>
	<path class="st1" d="M16.8,28.1c-1.2,0-4.7,5.1-4.7,7.4c0,2.8,2,4.9,4.7,4.9c2.7,0,4.7-2.1,4.7-4.9C21.5,33.2,18,28.1,16.8,28.1z
		 M16.8,39.1c-1.9,0-3.4-1.6-3.4-3.6c0-1.7,2.5-5.2,3.4-6c0.9,0.8,3.4,4.2,3.4,6C20.2,37.6,18.7,39.1,16.8,39.1z"/>
	<path class="st1" d="M23.6,6.9H10c-0.4,0-0.6,0.3-0.6,0.6V18c0,0.4,0.3,0.6,0.6,0.6h13.5c0.4,0,0.6-0.3,0.6-0.6V7.5
		C24.2,7.1,23.9,6.9,23.6,6.9z M22.9,17.3H10.7V8.1h12.3V17.3z"/>
	<path class="st1" d="M45.6,40.8V14.7c0-1.5-0.7-2.8-1.7-3.6l-6.5-8.8c-0.2-0.3-0.6-0.3-0.9-0.1c-0.3,0.2-0.3,0.6-0.1,0.9l5.2,7
		c-0.2,0-0.4,0-0.6,0c-2.6,0-4.7,2.1-4.7,4.7s2.1,4.7,4.7,4.7c1.4,0,2.6-0.6,3.4-1.5v22.9c0,0,0,0,0,0c0,1.9-1.5,3.4-3.4,3.4
		c-1.9,0-3.4-1.5-3.4-3.4c0,0,0,0,0,0V30.7c0,0,0,0,0,0c0-2.6-2.1-4.7-4.7-4.7c0,0,0,0,0,0c0,0,0,0,0,0H29V6.6C29,4.1,26.9,2,24.4,2
		H8.9c-2.5,0-4.6,2-4.6,4.6v40.8C4.4,47.7,4.6,48,5,48h23.4c0.4,0,0.6-0.3,0.6-0.6V27.2h3.8c0,0,0,0,0,0c0,0,0,0,0,0
		c1.9,0,3.4,1.5,3.4,3.4c0,0,0,0,0,0v10.1c0,0,0,0,0,0c0,2.6,2.1,4.7,4.7,4.7C43.5,45.5,45.6,43.4,45.6,40.8
		C45.6,40.8,45.6,40.8,45.6,40.8z M40.9,18.1c-1.9,0-3.4-1.5-3.4-3.4s1.5-3.4,3.4-3.4c1.9,0,3.4,1.5,3.4,3.4S42.8,18.1,40.9,18.1z
		 M27.7,46.7H5.6V6.6c0-1.8,1.5-3.3,3.3-3.3h15.5c1.8,0,3.3,1.5,3.3,3.3V46.7z"/>
	<path class="st1" d="M16.8,28.1c-1.2,0-4.7,5.1-4.7,7.4c0,2.8,2,4.9,4.7,4.9c2.7,0,4.7-2.1,4.7-4.9C21.5,33.2,18,28.1,16.8,28.1z
		 M16.8,39.1c-1.9,0-3.4-1.6-3.4-3.6c0-1.7,2.5-5.2,3.4-6c0.9,0.8,3.4,4.2,3.4,6C20.2,37.6,18.7,39.1,16.8,39.1z"/>
	<path class="st1" d="M23.6,6.9H10c-0.4,0-0.6,0.3-0.6,0.6V18c0,0.4,0.3,0.6,0.6,0.6h13.5c0.4,0,0.6-0.3,0.6-0.6V7.5
		C24.2,7.1,23.9,6.9,23.6,6.9z M22.9,17.3H10.7V8.1h12.3V17.3z"/>
	<path class="st1" d="M45.6,40.8V14.7c0-1.5-0.7-2.8-1.7-3.6l-6.5-8.8c-0.2-0.3-0.6-0.3-0.9-0.1c-0.3,0.2-0.3,0.6-0.1,0.9l5.2,7
		c-0.2,0-0.4,0-0.6,0c-2.6,0-4.7,2.1-4.7,4.7s2.1,4.7,4.7,4.7c1.4,0,2.6-0.6,3.4-1.5v22.9c0,0,0,0,0,0c0,1.9-1.5,3.4-3.4,3.4
		c-1.9,0-3.4-1.5-3.4-3.4c0,0,0,0,0,0V30.7c0,0,0,0,0,0c0-2.6-2.1-4.7-4.7-4.7c0,0,0,0,0,0c0,0,0,0,0,0H29V6.6C29,4.1,26.9,2,24.4,2
		H8.9c-2.5,0-4.6,2-4.6,4.6v40.8C4.4,47.7,4.6,48,5,48h23.4c0.4,0,0.6-0.3,0.6-0.6V27.2h3.8c0,0,0,0,0,0c0,0,0,0,0,0
		c1.9,0,3.4,1.5,3.4,3.4c0,0,0,0,0,0v10.1c0,0,0,0,0,0c0,2.6,2.1,4.7,4.7,4.7C43.5,45.5,45.6,43.4,45.6,40.8
		C45.6,40.8,45.6,40.8,45.6,40.8z M40.9,18.1c-1.9,0-3.4-1.5-3.4-3.4s1.5-3.4,3.4-3.4c1.9,0,3.4,1.5,3.4,3.4S42.8,18.1,40.9,18.1z
		 M27.7,46.7H5.6V6.6c0-1.8,1.5-3.3,3.3-3.3h15.5c1.8,0,3.3,1.5,3.3,3.3V46.7z"/>
</g>
</svg>
