<?xml version="1.0" encoding="utf-8"?>
<!-- Generator: Adobe Illustrator 22.1.0, SVG Export Plug-In . SVG Version: 6.00 Build 0)  -->
<svg version="1.1" id="Layer_1" xmlns="http://www.w3.org/2000/svg" xmlns:xlink="http://www.w3.org/1999/xlink" x="0px" y="0px"
	 viewBox="0 0 50 50" style="enable-background:new 0 0 50 50;" xml:space="preserve">
<style type="text/css">
	.st0{fill:#008660;}
	.st1{fill:none;stroke:#000000;stroke-miterlimit:10;}
</style>
<path class="st0" d="M-1111.7,32.8h5.4c0.3,0,0.6-0.3,0.6-0.6v-12c0-0.3-0.3-0.6-0.6-0.6h-5.4c-0.3,0-0.6,0.3-0.6,0.6v12
	C-1112.3,32.5-1112,32.8-1111.7,32.8z M-1111.1,20.8h4.3v10.8h-4.3V20.8z"/>
<path class="st0" d="M-1098.6,39c0.3,0,0.6-0.3,0.6-0.6V36c0-0.3-0.3-0.6-0.6-0.6c-0.3,0-0.6,0.3-0.6,0.6v2.4
	C-1099.2,38.7-1098.9,39-1098.6,39z"/>
<g>
	<path class="st1" d="M7.8,14.1c0,0,0.9,0,1.5-0.2l0.6-0.1c3.1,7.1,8.3,20,8.3,27.5c0,0,0,0,0,0.1v5.5h-3.3c-0.3,0-0.6,0.3-0.6,0.6
		s0.3,0.6,0.6,0.6h7.8c0.3,0,0.6-0.3,0.6-0.6s-0.3-0.6-0.6-0.6h-3.3v-5.6c0,0,0,0,0-0.1c0-6.3,5.2-19.8,8.4-27.3l0.3-0.1
		c3.1,7.1,8.3,20,8.3,27.5c0,0,0,0,0,0.1v5.5h-3.3c-0.3,0-0.6,0.3-0.6,0.6s0.3,0.6,0.6,0.6h7.8c0.3,0,0.6-0.3,0.6-0.6
		s-0.3-0.6-0.6-0.6h-3.3v-5.6c0,0,0,0,0-0.1C37.5,32.3,47.8,9,48,8.8c0.1-0.2,0.1-0.4,0-0.5C47.8,8.1,47.6,8,47.4,8c0,0,0,0,0,0
		l-15,0c-0.1-3.3-2.8-6-6.2-6c-3.3,0-6.1,2.7-6.2,6l-5.8,0c-0.1-3.3-2.8-6-6.2-6C4.8,2,2,4.8,2,8.2C2,11.1,4.2,14.1,7.8,14.1z
		 M20.2,9.1c0.2,1.5,1,2.9,2.2,3.8c-0.1,0-0.2,0-0.4,0c-2,0-3.1,0.5-4.1,1c-1,0.5-1.9,0.9-3.6,0.9c-1.4,0-2.2-0.3-2.9-0.6
		c-1-2.3-1.9-4.2-2.3-5.2L20.2,9.1z M12,15.7c0.6,0.2,1.4,0.3,2.3,0.3c2,0,3.1-0.5,4.1-1c1-0.5,1.9-0.9,3.6-0.9
		c1.7,0,2.7,0.4,3.6,0.9l0.2,0.1c-2.5,6.1-5.8,14.8-7.1,21.2C17.6,29.7,14.4,21.5,12,15.7z M30.1,15.7c0.6,0.2,1.4,0.3,2.3,0.3
		c2,0,3.1-0.5,4.1-1c1-0.5,1.9-0.9,3.6-0.9c1.7,0,2.7,0.4,3.6,0.9l0.2,0.1c-2.4,6-5.8,14.7-7.1,21.2C35.7,29.7,32.6,21.5,30.1,15.7z
		 M44.5,14L44.3,14c-1.1-0.5-2.1-1-4.1-1c-2,0-3.1,0.5-4.1,1c-1,0.5-1.9,0.9-3.6,0.9c-1.4,0-2.2-0.3-2.9-0.6c-1-2.3-1.9-4.2-2.3-5.2
		l19.4,0C46.1,10.1,45.4,11.8,44.5,14z M26.3,3.2c2.7,0,4.9,2.1,5,4.8l-5.1,0c-0.2,0-0.4,0.1-0.5,0.3c-0.1,0.2-0.1,0.4,0,0.6
		c0,0.1,0.7,1.5,1.8,3.9l-0.4,0.1c-0.4,0.1-1,0.1-1.2,0.1c-2.9,0-4.6-2.4-4.6-4.8C21.3,5.4,23.5,3.2,26.3,3.2z M8.2,3.2
		c2.7,0,4.9,2.1,5,4.8L8.1,8C7.9,8,7.7,8.1,7.6,8.2c-0.1,0.2-0.1,0.4,0,0.6c0,0.1,0.7,1.5,1.8,3.9L9,12.8c-0.4,0.1-1,0.1-1.2,0.1
		c-2.9,0-4.6-2.4-4.6-4.8C3.2,5.4,5.4,3.2,8.2,3.2z"/>
	<path class="st1" d="M6.5,8.2c0-0.3-0.3-0.6-0.6-0.6H4.6C4.3,7.6,4,7.9,4,8.2s0.3,0.6,0.6,0.6h1.4C6.3,8.7,6.5,8.5,6.5,8.2z"/>
	<path class="st1" d="M8.2,6.5c0.3,0,0.6-0.3,0.6-0.6V4.6C8.7,4.3,8.5,4,8.2,4C7.9,4,7.6,4.3,7.6,4.6v1.4C7.6,6.3,7.9,6.5,8.2,6.5z"
		/>
	<path class="st1" d="M6.2,9.3l-1,1c-0.2,0.2-0.2,0.6,0,0.8c0.1,0.1,0.3,0.2,0.4,0.2s0.3-0.1,0.4-0.2l1-1c0.2-0.2,0.2-0.6,0-0.8
		C6.8,9.1,6.4,9.1,6.2,9.3z"/>
	<path class="st1" d="M9.8,7.2c0.1,0,0.3-0.1,0.4-0.2l1-1c0.2-0.2,0.2-0.6,0-0.8s-0.6-0.2-0.8,0l-1,1C9.1,6.4,9.1,6.8,9.3,7
		C9.5,7.1,9.6,7.2,9.8,7.2z"/>
	<path class="st1" d="M6.2,7c0.1,0.1,0.3,0.2,0.4,0.2S6.9,7.1,7,7c0.2-0.2,0.2-0.6,0-0.8l-1-1C5.8,5,5.4,5,5.2,5.2S5,5.8,5.2,6
		L6.2,7z"/>
	<path class="st1" d="M24.6,8.2c0-0.3-0.3-0.6-0.6-0.6h-1.4c-0.3,0-0.6,0.3-0.6,0.6s0.3,0.6,0.6,0.6h1.4C24.4,8.7,24.6,8.5,24.6,8.2
		z"/>
	<path class="st1" d="M26.3,6.5c0.3,0,0.6-0.3,0.6-0.6V4.6c0-0.3-0.3-0.6-0.6-0.6c-0.3,0-0.6,0.3-0.6,0.6v1.4
		C25.7,6.3,26,6.5,26.3,6.5z"/>
	<path class="st1" d="M24.3,9.3l-1,1c-0.2,0.2-0.2,0.6,0,0.8c0.1,0.1,0.3,0.2,0.4,0.2c0.1,0,0.3-0.1,0.4-0.2l1-1
		c0.2-0.2,0.2-0.6,0-0.8C24.9,9.1,24.5,9.1,24.3,9.3z"/>
	<path class="st1" d="M27.9,7.2c0.1,0,0.3-0.1,0.4-0.2l1-1c0.2-0.2,0.2-0.6,0-0.8s-0.6-0.2-0.8,0l-1,1c-0.2,0.2-0.2,0.6,0,0.8
		C27.6,7.1,27.7,7.2,27.9,7.2z"/>
	<path class="st1" d="M24.3,7c0.1,0.1,0.3,0.2,0.4,0.2c0.1,0,0.3-0.1,0.4-0.2c0.2-0.2,0.2-0.6,0-0.8l-1-1c-0.2-0.2-0.6-0.2-0.8,0
		c-0.2,0.2-0.2,0.6,0,0.8L24.3,7z"/>
	<path class="st1" d="M7.8,14.1c0,0,0.9,0,1.5-0.2l0.6-0.1c3.1,7.1,8.3,20,8.3,27.5c0,0,0,0,0,0.1v5.5h-3.3c-0.3,0-0.6,0.3-0.6,0.6
		s0.3,0.6,0.6,0.6h7.8c0.3,0,0.6-0.3,0.6-0.6s-0.3-0.6-0.6-0.6h-3.3v-5.6c0,0,0,0,0-0.1c0-6.3,5.2-19.8,8.4-27.3l0.3-0.1
		c3.1,7.1,8.3,20,8.3,27.5c0,0,0,0,0,0.1v5.5h-3.3c-0.3,0-0.6,0.3-0.6,0.6s0.3,0.6,0.6,0.6h7.8c0.3,0,0.6-0.3,0.6-0.6
		s-0.3-0.6-0.6-0.6h-3.3v-5.6c0,0,0,0,0-0.1C37.5,32.3,47.8,9,48,8.8c0.1-0.2,0.1-0.4,0-0.5C47.8,8.1,47.6,8,47.4,8c0,0,0,0,0,0
		l-15,0c-0.1-3.3-2.8-6-6.2-6c-3.3,0-6.1,2.7-6.2,6l-5.8,0c-0.1-3.3-2.8-6-6.2-6C4.8,2,2,4.8,2,8.2C2,11.1,4.2,14.1,7.8,14.1z
		 M20.2,9.1c0.2,1.5,1,2.9,2.2,3.8c-0.1,0-0.2,0-0.4,0c-2,0-3.1,0.5-4.1,1c-1,0.5-1.9,0.9-3.6,0.9c-1.4,0-2.2-0.3-2.9-0.6
		c-1-2.3-1.9-4.2-2.3-5.2L20.2,9.1z M12,15.7c0.6,0.2,1.4,0.3,2.3,0.3c2,0,3.1-0.5,4.1-1c1-0.5,1.9-0.9,3.6-0.9
		c1.7,0,2.7,0.4,3.6,0.9l0.2,0.1c-2.5,6.1-5.8,14.8-7.1,21.2C17.6,29.7,14.4,21.5,12,15.7z M30.1,15.7c0.6,0.2,1.4,0.3,2.3,0.3
		c2,0,3.1-0.5,4.1-1c1-0.5,1.9-0.9,3.6-0.9c1.7,0,2.7,0.4,3.6,0.9l0.2,0.1c-2.4,6-5.8,14.7-7.1,21.2C35.7,29.7,32.6,21.5,30.1,15.7z
		 M44.5,14L44.3,14c-1.1-0.5-2.1-1-4.1-1c-2,0-3.1,0.5-4.1,1c-1,0.5-1.9,0.9-3.6,0.9c-1.4,0-2.2-0.3-2.9-0.6c-1-2.3-1.9-4.2-2.3-5.2
		l19.4,0C46.1,10.1,45.4,11.8,44.5,14z M26.3,3.2c2.7,0,4.9,2.1,5,4.8l-5.1,0c-0.2,0-0.4,0.1-0.5,0.3c-0.1,0.2-0.1,0.4,0,0.6
		c0,0.1,0.7,1.5,1.8,3.9l-0.4,0.1c-0.4,0.1-1,0.1-1.2,0.1c-2.9,0-4.6-2.4-4.6-4.8C21.3,5.4,23.5,3.2,26.3,3.2z M8.2,3.2
		c2.7,0,4.9,2.1,5,4.8L8.1,8C7.9,8,7.7,8.1,7.6,8.2c-0.1,0.2-0.1,0.4,0,0.6c0,0.1,0.7,1.5,1.8,3.9L9,12.8c-0.4,0.1-1,0.1-1.2,0.1
		c-2.9,0-4.6-2.4-4.6-4.8C3.2,5.4,5.4,3.2,8.2,3.2z"/>
	<path class="st1" d="M6.5,8.2c0-0.3-0.3-0.6-0.6-0.6H4.6C4.3,7.6,4,7.9,4,8.2s0.3,0.6,0.6,0.6h1.4C6.3,8.7,6.5,8.5,6.5,8.2z"/>
	<path class="st1" d="M8.2,6.5c0.3,0,0.6-0.3,0.6-0.6V4.6C8.7,4.3,8.5,4,8.2,4C7.9,4,7.6,4.3,7.6,4.6v1.4C7.6,6.3,7.9,6.5,8.2,6.5z"
		/>
	<path class="st1" d="M6.2,9.3l-1,1c-0.2,0.2-0.2,0.6,0,0.8c0.1,0.1,0.3,0.2,0.4,0.2s0.3-0.1,0.4-0.2l1-1c0.2-0.2,0.2-0.6,0-0.8
		C6.8,9.1,6.4,9.1,6.2,9.3z"/>
	<path class="st1" d="M9.8,7.2c0.1,0,0.3-0.1,0.4-0.2l1-1c0.2-0.2,0.2-0.6,0-0.8s-0.6-0.2-0.8,0l-1,1C9.1,6.4,9.1,6.8,9.3,7
		C9.5,7.1,9.6,7.2,9.8,7.2z"/>
	<path class="st1" d="M6.2,7c0.1,0.1,0.3,0.2,0.4,0.2S6.9,7.1,7,7c0.2-0.2,0.2-0.6,0-0.8l-1-1C5.8,5,5.4,5,5.2,5.2S5,5.8,5.2,6
		L6.2,7z"/>
	<path class="st1" d="M24.6,8.2c0-0.3-0.3-0.6-0.6-0.6h-1.4c-0.3,0-0.6,0.3-0.6,0.6s0.3,0.6,0.6,0.6h1.4C24.4,8.7,24.6,8.5,24.6,8.2
		z"/>
	<path class="st1" d="M26.3,6.5c0.3,0,0.6-0.3,0.6-0.6V4.6c0-0.3-0.3-0.6-0.6-0.6c-0.3,0-0.6,0.3-0.6,0.6v1.4
		C25.7,6.3,26,6.5,26.3,6.5z"/>
	<path class="st1" d="M24.3,9.3l-1,1c-0.2,0.2-0.2,0.6,0,0.8c0.1,0.1,0.3,0.2,0.4,0.2c0.1,0,0.3-0.1,0.4-0.2l1-1
		c0.2-0.2,0.2-0.6,0-0.8C24.9,9.1,24.5,9.1,24.3,9.3z"/>
	<path class="st1" d="M27.9,7.2c0.1,0,0.3-0.1,0.4-0.2l1-1c0.2-0.2,0.2-0.6,0-0.8s-0.6-0.2-0.8,0l-1,1c-0.2,0.2-0.2,0.6,0,0.8
		C27.6,7.1,27.7,7.2,27.9,7.2z"/>
	<path class="st1" d="M24.3,7c0.1,0.1,0.3,0.2,0.4,0.2c0.1,0,0.3-0.1,0.4-0.2c0.2-0.2,0.2-0.6,0-0.8l-1-1c-0.2-0.2-0.6-0.2-0.8,0
		c-0.2,0.2-0.2,0.6,0,0.8L24.3,7z"/>
</g>
</svg>
