<?xml version="1.0" encoding="utf-8"?>
<!-- Generator: Adobe Illustrator 22.1.0, SVG Export Plug-In . SVG Version: 6.00 Build 0)  -->
<svg version="1.1" id="Layer_1" xmlns="http://www.w3.org/2000/svg" xmlns:xlink="http://www.w3.org/1999/xlink" x="0px" y="0px"
	 viewBox="0 0 50 50" style="enable-background:new 0 0 50 50;" xml:space="preserve">
<style type="text/css">
	.st0{fill:#008660;}
	.st1{fill:none;stroke:#000000;stroke-miterlimit:10;}
</style>
<path class="st0" d="M-1111.7,32.8h5.4c0.3,0,0.6-0.3,0.6-0.6v-12c0-0.3-0.3-0.6-0.6-0.6h-5.4c-0.3,0-0.6,0.3-0.6,0.6v12
	C-1112.3,32.5-1112,32.8-1111.7,32.8z M-1111.1,20.8h4.3v10.8h-4.3V20.8z"/>
<path class="st0" d="M-1098.6,39c0.3,0,0.6-0.3,0.6-0.6V36c0-0.3-0.3-0.6-0.6-0.6c-0.3,0-0.6,0.3-0.6,0.6v2.4
	C-1099.2,38.7-1098.9,39-1098.6,39z"/>
<g>
	<g>
		<path class="st1" d="M38.5,20.5c-0.1,0-0.3,0-0.4-0.1c-0.4-0.2-0.5-0.7-0.3-1.1L43.9,8c0.1-0.2,0.3-0.3,0.5-0.4
			c0.2-0.1,0.4,0,0.6,0.1l0.5,0.3l0.6-1l-4.4-2.9l-0.6,1l0.5,0.3c0.2,0.1,0.3,0.3,0.3,0.5c0,0.2,0,0.4-0.2,0.6L31.5,20
			c-0.3,0.3-0.8,0.4-1.1,0.1c-0.3-0.3-0.4-0.8-0.1-1.1L40,6.4l-0.4-0.3c-0.2-0.1-0.3-0.3-0.3-0.5c0-0.2,0-0.4,0.1-0.6l1.5-2.3
			c0.2-0.4,0.7-0.5,1.1-0.2l5.7,3.7c0.2,0.1,0.3,0.3,0.3,0.5c0,0.2,0,0.4-0.1,0.6l-1.5,2.3c-0.2,0.4-0.7,0.5-1.1,0.2l-0.4-0.3
			l-5.7,10.5C39,20.3,38.8,20.5,38.5,20.5z"/>
	</g>
	<g>
		<path class="st1" d="M33.2,41h-19C12,41,9.7,39.3,9,37.2L4.3,23l1.5-0.5l4.7,14.2c0.5,1.5,2.2,2.7,3.7,2.7h19
			c1.5,0,3.3-1.2,3.7-2.7l4.7-14.2l1.5,0.5l-4.7,14.2C37.7,39.3,35.4,41,33.2,41z"/>
	</g>
	<g>
		<path class="st1" d="M44.6,23.5H2.8c-0.4,0-0.8-0.4-0.8-0.8v-3.1c0-0.4,0.4-0.8,0.8-0.8h7.6c0.4,0,0.8,0.4,0.8,0.8
			s-0.4,0.8-0.8,0.8H3.6V22h40.2v-1.5H14.3c-0.4,0-0.8-0.4-0.8-0.8s0.4-0.8,0.8-0.8h30.3c0.4,0,0.8,0.4,0.8,0.8v3.1
			C45.4,23.2,45.1,23.5,44.6,23.5z"/>
	</g>
	<g>
		<path class="st1" d="M26.5,47.6H13.3c-0.3,0-0.5-0.1-0.6-0.3c-0.1-0.2-0.2-0.5-0.1-0.7l2.1-6.3c0.1-0.4,0.6-0.6,1-0.5
			c0.4,0.1,0.6,0.6,0.5,1l-1.7,5.3h12.2c0.4,0,0.8,0.4,0.8,0.8C27.3,47.3,27,47.6,26.5,47.6z"/>
	</g>
	<g>
		<path class="st1" d="M34.1,47.6h-3.7c-0.4,0-0.8-0.4-0.8-0.8c0-0.4,0.4-0.8,0.8-0.8H33l-1.7-5.3c-0.1-0.4,0.1-0.9,0.5-1
			c0.4-0.1,0.9,0.1,1,0.5l2.1,6.3c0.1,0.2,0,0.5-0.1,0.7S34.4,47.6,34.1,47.6z"/>
	</g>
	<g>
		<path class="st1" d="M28.5,47.6c-0.2,0-0.4-0.1-0.6-0.2c-0.1-0.1-0.2-0.4-0.2-0.6s0.1-0.4,0.2-0.6c0.3-0.3,0.8-0.3,1.1,0
			c0.1,0.1,0.2,0.4,0.2,0.6s-0.1,0.4-0.2,0.6C28.9,47.6,28.7,47.6,28.5,47.6z"/>
	</g>
	<g>
		<path class="st1" d="M12.4,20.5c-0.2,0-0.4-0.1-0.6-0.2c-0.1-0.2-0.2-0.4-0.2-0.6c0-0.2,0.1-0.4,0.2-0.6c0.3-0.3,0.8-0.3,1.1,0
			c0.2,0.1,0.2,0.4,0.2,0.6c0,0.2-0.1,0.4-0.2,0.6C12.8,20.4,12.6,20.5,12.4,20.5z"/>
	</g>
	<g>
		<path class="st1" d="M12.4,20.5c-0.2,0-0.4-0.1-0.6-0.2c-0.1-0.1-0.2-0.4-0.2-0.6c0-0.2,0.1-0.4,0.2-0.6c0.3-0.3,0.8-0.3,1.1,0
			c0.1,0.2,0.2,0.4,0.2,0.6c0,0.2-0.1,0.4-0.2,0.6C12.8,20.4,12.6,20.5,12.4,20.5z"/>
	</g>
	<g>
		<g>
			<path class="st1" d="M25.6,37.4h-3.7c-0.4,0-0.8-0.4-0.8-0.8v-2.3h-2.3c-0.4,0-0.8-0.4-0.8-0.8v-3.7c0-0.4,0.4-0.8,0.8-0.8h2.3
				v-2.3c0-0.4,0.4-0.8,0.8-0.8h3.7c0.4,0,0.8,0.4,0.8,0.8v2.3h2.3c0.4,0,0.8,0.4,0.8,0.8v3.7c0,0.4-0.4,0.8-0.8,0.8h-2.3v2.3
				C26.4,37,26,37.4,25.6,37.4z M22.7,35.8h2.1v-2.3c0-0.4,0.4-0.8,0.8-0.8h2.3v-2.1h-2.3c-0.4,0-0.8-0.4-0.8-0.8v-2.3h-2.1v2.3
				c0,0.4-0.4,0.8-0.8,0.8h-2.3v2.1h2.3c0.4,0,0.8,0.4,0.8,0.8V35.8z"/>
		</g>
	</g>
	<g>
		<path class="st1" d="M38.5,20.5c-0.1,0-0.3,0-0.4-0.1c-0.4-0.2-0.5-0.7-0.3-1.1L43.9,8c0.1-0.2,0.3-0.3,0.5-0.4
			c0.2-0.1,0.4,0,0.6,0.1l0.5,0.3l0.6-1l-4.4-2.9l-0.6,1l0.5,0.3c0.2,0.1,0.3,0.3,0.3,0.5c0,0.2,0,0.4-0.2,0.6L31.5,20
			c-0.3,0.3-0.8,0.4-1.1,0.1c-0.3-0.3-0.4-0.8-0.1-1.1L40,6.4l-0.4-0.3c-0.2-0.1-0.3-0.3-0.3-0.5c0-0.2,0-0.4,0.1-0.6l1.5-2.3
			c0.2-0.4,0.7-0.5,1.1-0.2l5.7,3.7c0.2,0.1,0.3,0.3,0.3,0.5c0,0.2,0,0.4-0.1,0.6l-1.5,2.3c-0.2,0.4-0.7,0.5-1.1,0.2l-0.4-0.3
			l-5.7,10.5C39,20.3,38.8,20.5,38.5,20.5z"/>
	</g>
	<g>
		<path class="st1" d="M33.2,41h-19C12,41,9.7,39.3,9,37.2L4.3,23l1.5-0.5l4.7,14.2c0.5,1.5,2.2,2.7,3.7,2.7h19
			c1.5,0,3.3-1.2,3.7-2.7l4.7-14.2l1.5,0.5l-4.7,14.2C37.7,39.3,35.4,41,33.2,41z"/>
	</g>
	<g>
		<path class="st1" d="M44.6,23.5H2.8c-0.4,0-0.8-0.4-0.8-0.8v-3.1c0-0.4,0.4-0.8,0.8-0.8h7.6c0.4,0,0.8,0.4,0.8,0.8
			s-0.4,0.8-0.8,0.8H3.6V22h40.2v-1.5H14.3c-0.4,0-0.8-0.4-0.8-0.8s0.4-0.8,0.8-0.8h30.3c0.4,0,0.8,0.4,0.8,0.8v3.1
			C45.4,23.2,45.1,23.5,44.6,23.5z"/>
	</g>
	<g>
		<path class="st1" d="M26.5,47.6H13.3c-0.3,0-0.5-0.1-0.6-0.3c-0.1-0.2-0.2-0.5-0.1-0.7l2.1-6.3c0.1-0.4,0.6-0.6,1-0.5
			c0.4,0.1,0.6,0.6,0.5,1l-1.7,5.3h12.2c0.4,0,0.8,0.4,0.8,0.8C27.3,47.3,27,47.6,26.5,47.6z"/>
	</g>
	<g>
		<path class="st1" d="M34.1,47.6h-3.7c-0.4,0-0.8-0.4-0.8-0.8c0-0.4,0.4-0.8,0.8-0.8H33l-1.7-5.3c-0.1-0.4,0.1-0.9,0.5-1
			c0.4-0.1,0.9,0.1,1,0.5l2.1,6.3c0.1,0.2,0,0.5-0.1,0.7S34.4,47.6,34.1,47.6z"/>
	</g>
	<g>
		<path class="st1" d="M28.5,47.6c-0.2,0-0.4-0.1-0.6-0.2c-0.1-0.1-0.2-0.4-0.2-0.6s0.1-0.4,0.2-0.6c0.3-0.3,0.8-0.3,1.1,0
			c0.1,0.1,0.2,0.4,0.2,0.6s-0.1,0.4-0.2,0.6C28.9,47.6,28.7,47.6,28.5,47.6z"/>
	</g>
	<g>
		<path class="st1" d="M12.4,20.5c-0.2,0-0.4-0.1-0.6-0.2c-0.1-0.2-0.2-0.4-0.2-0.6c0-0.2,0.1-0.4,0.2-0.6c0.3-0.3,0.8-0.3,1.1,0
			c0.2,0.1,0.2,0.4,0.2,0.6c0,0.2-0.1,0.4-0.2,0.6C12.8,20.4,12.6,20.5,12.4,20.5z"/>
	</g>
	<g>
		<path class="st1" d="M12.4,20.5c-0.2,0-0.4-0.1-0.6-0.2c-0.1-0.1-0.2-0.4-0.2-0.6c0-0.2,0.1-0.4,0.2-0.6c0.3-0.3,0.8-0.3,1.1,0
			c0.1,0.2,0.2,0.4,0.2,0.6c0,0.2-0.1,0.4-0.2,0.6C12.8,20.4,12.6,20.5,12.4,20.5z"/>
	</g>
	<g>
		<g>
			<path class="st1" d="M25.6,37.4h-3.7c-0.4,0-0.8-0.4-0.8-0.8v-2.3h-2.3c-0.4,0-0.8-0.4-0.8-0.8v-3.7c0-0.4,0.4-0.8,0.8-0.8h2.3
				v-2.3c0-0.4,0.4-0.8,0.8-0.8h3.7c0.4,0,0.8,0.4,0.8,0.8v2.3h2.3c0.4,0,0.8,0.4,0.8,0.8v3.7c0,0.4-0.4,0.8-0.8,0.8h-2.3v2.3
				C26.4,37,26,37.4,25.6,37.4z M22.7,35.8h2.1v-2.3c0-0.4,0.4-0.8,0.8-0.8h2.3v-2.1h-2.3c-0.4,0-0.8-0.4-0.8-0.8v-2.3h-2.1v2.3
				c0,0.4-0.4,0.8-0.8,0.8h-2.3v2.1h2.3c0.4,0,0.8,0.4,0.8,0.8V35.8z"/>
		</g>
	</g>
</g>
</svg>
