<?xml version="1.0" encoding="utf-8"?>
<!-- Generator: Adobe Illustrator 22.1.0, SVG Export Plug-In . SVG Version: 6.00 Build 0)  -->
<svg version="1.1" id="Layer_1" xmlns="http://www.w3.org/2000/svg" xmlns:xlink="http://www.w3.org/1999/xlink" x="0px" y="0px"
	 viewBox="0 0 50 50" style="enable-background:new 0 0 50 50;" xml:space="preserve">
<style type="text/css">
	.st0{fill:#008660;}
	.st1{fill:none;stroke:#000000;stroke-miterlimit:10;}
</style>
<path class="st0" d="M-1111.7,32.8h5.4c0.3,0,0.6-0.3,0.6-0.6v-12c0-0.3-0.3-0.6-0.6-0.6h-5.4c-0.3,0-0.6,0.3-0.6,0.6v12
	C-1112.3,32.5-1112,32.8-1111.7,32.8z M-1111.1,20.8h4.3v10.8h-4.3V20.8z"/>
<path class="st0" d="M-1098.6,39c0.3,0,0.6-0.3,0.6-0.6V36c0-0.3-0.3-0.6-0.6-0.6c-0.3,0-0.6,0.3-0.6,0.6v2.4
	C-1099.2,38.7-1098.9,39-1098.6,39z"/>
<g>
	<path class="st1" d="M34.8,42.6c-0.4-0.1-0.9,0.2-1,0.6L33,46.4c-0.1,0.4,0.2,0.9,0.6,1c0.1,0,0.1,0,0.2,0c0.4,0,0.7-0.2,0.8-0.6
		l0.8-3.2C35.5,43.2,35.2,42.7,34.8,42.6z"/>
	<path class="st1" d="M25,26.6c0.1,0,0.2,0,0.3-0.1l8.8-3.6c0.4-0.2,0.6-0.6,0.4-1c-0.2-0.4-0.6-0.6-1-0.4L25,24.9L2.6,15.7v-0.3
		c0-0.4-0.4-0.8-0.8-0.8S1,15,1,15.4v0.8c0,0.3,0.2,0.6,0.5,0.7l23.2,9.6C24.8,26.6,24.9,26.6,25,26.6z"/>
	<path class="st1" d="M34.5,34.8c-0.2-0.4-0.7-0.6-1.1-0.4c-1.5,0.8-4.1,1.6-7.6,1.7V29c0-0.4-0.4-0.8-0.8-0.8s-0.8,0.4-0.8,0.8v7.2
		c-9.9-0.3-13.1-6.3-13.6-7.3v-5.4c0-0.4-0.4-0.8-0.8-0.8C9.4,22.6,9,23,9,23.4V29c0,0.1,0,0.2,0.1,0.3c0.1,0.3,3.5,8.5,15.9,8.5
		c4.3,0,7.4-1.1,9.2-1.9C34.6,35.7,34.7,35.2,34.5,34.8z"/>
	<path class="st1" d="M37,43.4c-0.4,0-0.8,0.4-0.8,0.8v2.4c0,0.4,0.4,0.8,0.8,0.8s0.8-0.4,0.8-0.8v-2.4C37.8,43.8,37.4,43.4,37,43.4
		z"/>
	<path class="st1" d="M48.2,14.6c-0.4,0-0.8,0.4-0.8,0.8v0.3l-9.6,4v-1.4l10.7-4.4c0.3-0.1,0.5-0.4,0.5-0.7s-0.2-0.6-0.5-0.7
		L25.3,2.7c-0.2-0.1-0.4-0.1-0.6,0L1.5,12.3C1.2,12.4,1,12.7,1,13s0.2,0.6,0.5,0.7l23.2,9.6c0.1,0,0.2,0.1,0.3,0.1s0.2,0,0.3-0.1
		l8.4-3.5c0.4-0.2,0.6-0.6,0.4-1c-0.2-0.4-0.6-0.6-1-0.4L25,21.7L3.9,13L25,4.3L46.1,13l-9.2,3.8l-8.8-3.3c0-0.2,0.1-0.3,0.1-0.5
		c0-1.3-1.4-2.4-3.2-2.4c-1.8,0-3.2,1.1-3.2,2.4s1.4,2.4,3.2,2.4c0.8,0,1.5-0.2,2.1-0.6l9.1,3.4v2.6v0v17.1
		c-0.9,0.3-1.6,1.2-1.6,2.3c0,1.3,1.1,2.4,2.4,2.4s2.4-1.1,2.4-2.4c0-1-0.7-1.9-1.6-2.3v-4.5c2.3-1.7,3.1-4,3.2-4.1
		c0-0.1,0-0.2,0-0.3v-5.6c0-0.4-0.4-0.8-0.8-0.8c-0.4,0-0.8,0.4-0.8,0.8v5.5c-0.1,0.3-0.6,1.4-1.6,2.4v-9.9l10.7-4.4
		c0.3-0.1,0.5-0.4,0.5-0.7v-0.8C49,15,48.6,14.6,48.2,14.6z M25,13.8c-1,0-1.6-0.5-1.6-0.8c0-0.3,0.6-0.8,1.6-0.8
		c1,0,1.6,0.5,1.6,0.8C26.6,13.3,26,13.8,25,13.8z M37,41c-0.4,0-0.8-0.4-0.8-0.8s0.4-0.8,0.8-0.8c0.4,0,0.8,0.4,0.8,0.8
		C37.8,40.6,37.4,41,37,41z"/>
	<path class="st1" d="M40.2,43.2c-0.1-0.4-0.5-0.7-1-0.6c-0.4,0.1-0.7,0.5-0.6,1l0.8,3.2c0.1,0.4,0.4,0.6,0.8,0.6c0.1,0,0.1,0,0.2,0
		c0.4-0.1,0.7-0.5,0.6-1L40.2,43.2z"/>
	<path class="st1" d="M34.8,42.6c-0.4-0.1-0.9,0.2-1,0.6L33,46.4c-0.1,0.4,0.2,0.9,0.6,1c0.1,0,0.1,0,0.2,0c0.4,0,0.7-0.2,0.8-0.6
		l0.8-3.2C35.5,43.2,35.2,42.7,34.8,42.6z"/>
	<path class="st1" d="M25,26.6c0.1,0,0.2,0,0.3-0.1l8.8-3.6c0.4-0.2,0.6-0.6,0.4-1c-0.2-0.4-0.6-0.6-1-0.4L25,24.9L2.6,15.7v-0.3
		c0-0.4-0.4-0.8-0.8-0.8S1,15,1,15.4v0.8c0,0.3,0.2,0.6,0.5,0.7l23.2,9.6C24.8,26.6,24.9,26.6,25,26.6z"/>
	<path class="st1" d="M34.5,34.8c-0.2-0.4-0.7-0.6-1.1-0.4c-1.5,0.8-4.1,1.6-7.6,1.7V29c0-0.4-0.4-0.8-0.8-0.8s-0.8,0.4-0.8,0.8v7.2
		c-9.9-0.3-13.1-6.3-13.6-7.3v-5.4c0-0.4-0.4-0.8-0.8-0.8C9.4,22.6,9,23,9,23.4V29c0,0.1,0,0.2,0.1,0.3c0.1,0.3,3.5,8.5,15.9,8.5
		c4.3,0,7.4-1.1,9.2-1.9C34.6,35.7,34.7,35.2,34.5,34.8z"/>
	<path class="st1" d="M37,43.4c-0.4,0-0.8,0.4-0.8,0.8v2.4c0,0.4,0.4,0.8,0.8,0.8s0.8-0.4,0.8-0.8v-2.4C37.8,43.8,37.4,43.4,37,43.4
		z"/>
	<path class="st1" d="M48.2,14.6c-0.4,0-0.8,0.4-0.8,0.8v0.3l-9.6,4v-1.4l10.7-4.4c0.3-0.1,0.5-0.4,0.5-0.7s-0.2-0.6-0.5-0.7
		L25.3,2.7c-0.2-0.1-0.4-0.1-0.6,0L1.5,12.3C1.2,12.4,1,12.7,1,13s0.2,0.6,0.5,0.7l23.2,9.6c0.1,0,0.2,0.1,0.3,0.1s0.2,0,0.3-0.1
		l8.4-3.5c0.4-0.2,0.6-0.6,0.4-1c-0.2-0.4-0.6-0.6-1-0.4L25,21.7L3.9,13L25,4.3L46.1,13l-9.2,3.8l-8.8-3.3c0-0.2,0.1-0.3,0.1-0.5
		c0-1.3-1.4-2.4-3.2-2.4c-1.8,0-3.2,1.1-3.2,2.4s1.4,2.4,3.2,2.4c0.8,0,1.5-0.2,2.1-0.6l9.1,3.4v2.6v0v17.1
		c-0.9,0.3-1.6,1.2-1.6,2.3c0,1.3,1.1,2.4,2.4,2.4s2.4-1.1,2.4-2.4c0-1-0.7-1.9-1.6-2.3v-4.5c2.3-1.7,3.1-4,3.2-4.1
		c0-0.1,0-0.2,0-0.3v-5.6c0-0.4-0.4-0.8-0.8-0.8c-0.4,0-0.8,0.4-0.8,0.8v5.5c-0.1,0.3-0.6,1.4-1.6,2.4v-9.9l10.7-4.4
		c0.3-0.1,0.5-0.4,0.5-0.7v-0.8C49,15,48.6,14.6,48.2,14.6z M25,13.8c-1,0-1.6-0.5-1.6-0.8c0-0.3,0.6-0.8,1.6-0.8
		c1,0,1.6,0.5,1.6,0.8C26.6,13.3,26,13.8,25,13.8z M37,41c-0.4,0-0.8-0.4-0.8-0.8s0.4-0.8,0.8-0.8c0.4,0,0.8,0.4,0.8,0.8
		C37.8,40.6,37.4,41,37,41z"/>
	<path class="st1" d="M40.2,43.2c-0.1-0.4-0.5-0.7-1-0.6c-0.4,0.1-0.7,0.5-0.6,1l0.8,3.2c0.1,0.4,0.4,0.6,0.8,0.6c0.1,0,0.1,0,0.2,0
		c0.4-0.1,0.7-0.5,0.6-1L40.2,43.2z"/>
</g>
</svg>
