<?xml version="1.0" encoding="utf-8"?>
<!-- Generator: Adobe Illustrator 22.1.0, SVG Export Plug-In . SVG Version: 6.00 Build 0)  -->
<svg version="1.1" id="Layer_1" xmlns="http://www.w3.org/2000/svg" xmlns:xlink="http://www.w3.org/1999/xlink" x="0px" y="0px"
	 viewBox="0 0 50 50" style="enable-background:new 0 0 50 50;" xml:space="preserve">
<style type="text/css">
	.st0{fill:#008660;}
	.st1{fill:none;stroke:#000000;stroke-miterlimit:10;}
</style>
<path class="st0" d="M-1111.7,32.8h5.4c0.3,0,0.6-0.3,0.6-0.6v-12c0-0.3-0.3-0.6-0.6-0.6h-5.4c-0.3,0-0.6,0.3-0.6,0.6v12
	C-1112.3,32.5-1112,32.8-1111.7,32.8z M-1111.1,20.8h4.3v10.8h-4.3V20.8z"/>
<path class="st0" d="M-1098.6,39c0.3,0,0.6-0.3,0.6-0.6V36c0-0.3-0.3-0.6-0.6-0.6c-0.3,0-0.6,0.3-0.6,0.6v2.4
	C-1099.2,38.7-1098.9,39-1098.6,39z"/>
<g>
	<path class="st1" d="M37.5,23.9c1.3-6-0.5-12.1-4.8-16.5c-7-7-18.4-7-25.4,0s-7,18.4,0,25.4c3.4,3.4,8,5.3,12.7,5.3
		c1.3,0,2.7-0.2,4-0.5c0.8,5.8,5.9,10.4,11.9,10.4c6.7,0,12.1-5.4,12.1-12.1C48,29.7,43.4,24.6,37.5,23.9z M35.9,23.7
		c-3.2,0-6.1,1.2-8.2,3.3L20.8,20l4.2-4.2c3.2,3,7.4,4.9,11.8,5.2c-0.1,0.9-0.2,1.8-0.4,2.7C36.2,23.8,36.1,23.7,35.9,23.7z
		 M15,24.2c-3.2-3-7.4-4.9-11.8-5.2c0.2-3.8,1.7-7.5,4.5-10.5L19.1,20L15,24.2z M8.5,7.8c3-2.8,6.7-4.3,10.5-4.5
		c0.3,4.4,2.1,8.6,5.2,11.8l-4.2,4.2L8.5,7.8z M24.9,14.3c-2.8-3-4.5-6.9-4.8-11c4.1,0,8.1,1.5,11.3,4.5L24.9,14.3z M36.8,19.9
		c-4.1-0.3-8-2-11-4.8l6.5-6.5C35.1,11.7,36.7,15.7,36.8,19.9z M3.1,20.2c4.1,0.3,8,2,11,4.8l-6.5,6.5C4.7,28.3,3.2,24.3,3.1,20.2z
		 M8.5,32.3l6.5-6.5c2.8,3,4.5,6.9,4.8,11C15.6,36.8,11.6,35.2,8.5,32.3z M21,36.8c-0.3-4.4-2.1-8.6-5.2-11.8l4.2-4.2l7,7
		c-1.9,2.1-3.1,4.9-3.1,8c0,0.2,0,0.4,0,0.6C22.9,36.6,21.9,36.8,21,36.8z M43.9,43.3c-0.1-0.1-0.1-0.1-0.2-0.2
		c-0.2-0.2-0.6-0.3-0.8-0.1c-0.2,0.2-0.3,0.6-0.1,0.8c0.1,0.1,0.2,0.2,0.2,0.3c-1.9,1.6-4.4,2.6-7.1,2.6c-2.7,0-5.2-1-7.1-2.6
		c0.1-0.1,0.2-0.2,0.2-0.3c0.2-0.2,0.2-0.6-0.1-0.8c-0.2-0.2-0.6-0.2-0.8,0.1c-0.1,0.1-0.1,0.1-0.2,0.2c-1.9-2-3-4.6-3-7.5
		c0-2.9,1.1-5.5,3-7.5c0.1,0.1,0.1,0.1,0.2,0.2c0.1,0.1,0.3,0.2,0.4,0.2c0.1,0,0.2,0,0.4-0.1c0.2-0.2,0.3-0.6,0.1-0.8
		c-0.1-0.1-0.2-0.2-0.2-0.3c1.9-1.6,4.4-2.6,7.1-2.6s5.2,1,7.1,2.6c-0.1,0.1-0.2,0.2-0.2,0.3c-0.2,0.2-0.2,0.6,0.1,0.8
		c0.1,0.1,0.2,0.1,0.4,0.1c0.2,0,0.3-0.1,0.4-0.2c0.1-0.1,0.1-0.1,0.2-0.2c1.9,2,3,4.6,3,7.5C46.9,38.7,45.7,41.4,43.9,43.3z"/>
	<path class="st1" d="M41.4,38.3c-0.1-0.5-0.2-1-0.2-1.5c0-0.3-0.3-0.5-0.6-0.5c-0.3,0-0.5,0.3-0.5,0.6c0,0.5,0.1,1.1,0.2,1.6
		c0.1,0.3,0.3,0.5,0.6,0.5c0,0,0.1,0,0.1,0C41.3,38.9,41.5,38.6,41.4,38.3z"/>
	<path class="st1" d="M42,40.2c-0.1-0.3-0.5-0.4-0.7-0.3c-0.3,0.1-0.4,0.4-0.3,0.7c0.2,0.5,0.4,1,0.7,1.5c0.1,0.2,0.3,0.3,0.5,0.3
		c0.1,0,0.2,0,0.3-0.1c0.3-0.2,0.4-0.5,0.2-0.8C42.4,41.1,42.2,40.6,42,40.2z"/>
	<path class="st1" d="M41.2,31.8c0.1,0,0.1,0,0.2,0c0.2,0,0.4-0.1,0.5-0.4c0.2-0.5,0.4-0.9,0.6-1.3c0.2-0.3,0.1-0.6-0.2-0.8
		c-0.3-0.2-0.6-0.1-0.8,0.2c-0.3,0.5-0.5,1-0.7,1.5C40.8,31.4,40.9,31.7,41.2,31.8z"/>
	<path class="st1" d="M40.6,35.4C40.6,35.4,40.6,35.4,40.6,35.4c0.3,0,0.6-0.2,0.6-0.5c0-0.5,0.1-1,0.2-1.5c0.1-0.3-0.1-0.6-0.4-0.7
		c-0.3-0.1-0.6,0.1-0.7,0.4c-0.1,0.5-0.2,1.1-0.2,1.6C40,35.1,40.3,35.3,40.6,35.4z"/>
	<path class="st1" d="M30.6,39.8c-0.3-0.1-0.6,0-0.7,0.3c-0.2,0.5-0.4,0.9-0.6,1.3c-0.2,0.3-0.1,0.6,0.2,0.8c0.1,0,0.2,0.1,0.3,0.1
		c0.2,0,0.4-0.1,0.5-0.3c0.3-0.5,0.5-1,0.7-1.5C31.1,40.3,30.9,39.9,30.6,39.8z"/>
	<path class="st1" d="M30.4,33.4c0.1,0.5,0.2,1,0.2,1.5c0,0.3,0.3,0.5,0.6,0.5c0,0,0,0,0,0c0.3,0,0.5-0.3,0.5-0.6
		c0-0.5-0.1-1.1-0.2-1.6c-0.1-0.3-0.4-0.5-0.7-0.4C30.6,32.8,30.4,33.1,30.4,33.4z"/>
	<path class="st1" d="M29.9,31.5c0.1,0.2,0.3,0.4,0.5,0.4c0.1,0,0.1,0,0.2,0c0.3-0.1,0.4-0.4,0.3-0.7c-0.2-0.5-0.4-1-0.7-1.5
		c-0.2-0.3-0.5-0.4-0.8-0.2c-0.3,0.2-0.4,0.5-0.2,0.8C29.5,30.6,29.7,31,29.9,31.5z"/>
	<path class="st1" d="M31.3,36.3c-0.3,0-0.6,0.2-0.6,0.5c0,0.5-0.1,1-0.2,1.5c-0.1,0.3,0.1,0.6,0.4,0.7c0,0,0.1,0,0.1,0
		c0.3,0,0.5-0.2,0.6-0.5c0.1-0.5,0.2-1.1,0.2-1.6C31.8,36.6,31.6,36.3,31.3,36.3z"/>
	<path class="st1" d="M37.5,23.9c1.3-6-0.5-12.1-4.8-16.5c-7-7-18.4-7-25.4,0s-7,18.4,0,25.4c3.4,3.4,8,5.3,12.7,5.3
		c1.3,0,2.7-0.2,4-0.5c0.8,5.8,5.9,10.4,11.9,10.4c6.7,0,12.1-5.4,12.1-12.1C48,29.7,43.4,24.6,37.5,23.9z M35.9,23.7
		c-3.2,0-6.1,1.2-8.2,3.3L20.8,20l4.2-4.2c3.2,3,7.4,4.9,11.8,5.2c-0.1,0.9-0.2,1.8-0.4,2.7C36.2,23.8,36.1,23.7,35.9,23.7z
		 M15,24.2c-3.2-3-7.4-4.9-11.8-5.2c0.2-3.8,1.7-7.5,4.5-10.5L19.1,20L15,24.2z M8.5,7.8c3-2.8,6.7-4.3,10.5-4.5
		c0.3,4.4,2.1,8.6,5.2,11.8l-4.2,4.2L8.5,7.8z M24.9,14.3c-2.8-3-4.5-6.9-4.8-11c4.1,0,8.1,1.5,11.3,4.5L24.9,14.3z M36.8,19.9
		c-4.1-0.3-8-2-11-4.8l6.5-6.5C35.1,11.7,36.7,15.7,36.8,19.9z M3.1,20.2c4.1,0.3,8,2,11,4.8l-6.5,6.5C4.7,28.3,3.2,24.3,3.1,20.2z
		 M8.5,32.3l6.5-6.5c2.8,3,4.5,6.9,4.8,11C15.6,36.8,11.6,35.2,8.5,32.3z M21,36.8c-0.3-4.4-2.1-8.6-5.2-11.8l4.2-4.2l7,7
		c-1.9,2.1-3.1,4.9-3.1,8c0,0.2,0,0.4,0,0.6C22.9,36.6,21.9,36.8,21,36.8z M43.9,43.3c-0.1-0.1-0.1-0.1-0.2-0.2
		c-0.2-0.2-0.6-0.3-0.8-0.1c-0.2,0.2-0.3,0.6-0.1,0.8c0.1,0.1,0.2,0.2,0.2,0.3c-1.9,1.6-4.4,2.6-7.1,2.6c-2.7,0-5.2-1-7.1-2.6
		c0.1-0.1,0.2-0.2,0.2-0.3c0.2-0.2,0.2-0.6-0.1-0.8c-0.2-0.2-0.6-0.2-0.8,0.1c-0.1,0.1-0.1,0.1-0.2,0.2c-1.9-2-3-4.6-3-7.5
		c0-2.9,1.1-5.5,3-7.5c0.1,0.1,0.1,0.1,0.2,0.2c0.1,0.1,0.3,0.2,0.4,0.2c0.1,0,0.2,0,0.4-0.1c0.2-0.2,0.3-0.6,0.1-0.8
		c-0.1-0.1-0.2-0.2-0.2-0.3c1.9-1.6,4.4-2.6,7.1-2.6s5.2,1,7.1,2.6c-0.1,0.1-0.2,0.2-0.2,0.3c-0.2,0.2-0.2,0.6,0.1,0.8
		c0.1,0.1,0.2,0.1,0.4,0.1c0.2,0,0.3-0.1,0.4-0.2c0.1-0.1,0.1-0.1,0.2-0.2c1.9,2,3,4.6,3,7.5C46.9,38.7,45.7,41.4,43.9,43.3z"/>
	<path class="st1" d="M41.4,38.3c-0.1-0.5-0.2-1-0.2-1.5c0-0.3-0.3-0.5-0.6-0.5c-0.3,0-0.5,0.3-0.5,0.6c0,0.5,0.1,1.1,0.2,1.6
		c0.1,0.3,0.3,0.5,0.6,0.5c0,0,0.1,0,0.1,0C41.3,38.9,41.5,38.6,41.4,38.3z"/>
	<path class="st1" d="M42,40.2c-0.1-0.3-0.5-0.4-0.7-0.3c-0.3,0.1-0.4,0.4-0.3,0.7c0.2,0.5,0.4,1,0.7,1.5c0.1,0.2,0.3,0.3,0.5,0.3
		c0.1,0,0.2,0,0.3-0.1c0.3-0.2,0.4-0.5,0.2-0.8C42.4,41.1,42.2,40.6,42,40.2z"/>
	<path class="st1" d="M41.2,31.8c0.1,0,0.1,0,0.2,0c0.2,0,0.4-0.1,0.5-0.4c0.2-0.5,0.4-0.9,0.6-1.3c0.2-0.3,0.1-0.6-0.2-0.8
		c-0.3-0.2-0.6-0.1-0.8,0.2c-0.3,0.5-0.5,1-0.7,1.5C40.8,31.4,40.9,31.7,41.2,31.8z"/>
	<path class="st1" d="M40.6,35.4C40.6,35.4,40.6,35.4,40.6,35.4c0.3,0,0.6-0.2,0.6-0.5c0-0.5,0.1-1,0.2-1.5c0.1-0.3-0.1-0.6-0.4-0.7
		c-0.3-0.1-0.6,0.1-0.7,0.4c-0.1,0.5-0.2,1.1-0.2,1.6C40,35.1,40.3,35.3,40.6,35.4z"/>
	<path class="st1" d="M30.6,39.8c-0.3-0.1-0.6,0-0.7,0.3c-0.2,0.5-0.4,0.9-0.6,1.3c-0.2,0.3-0.1,0.6,0.2,0.8c0.1,0,0.2,0.1,0.3,0.1
		c0.2,0,0.4-0.1,0.5-0.3c0.3-0.5,0.5-1,0.7-1.5C31.1,40.3,30.9,39.9,30.6,39.8z"/>
	<path class="st1" d="M30.4,33.4c0.1,0.5,0.2,1,0.2,1.5c0,0.3,0.3,0.5,0.6,0.5c0,0,0,0,0,0c0.3,0,0.5-0.3,0.5-0.6
		c0-0.5-0.1-1.1-0.2-1.6c-0.1-0.3-0.4-0.5-0.7-0.4C30.6,32.8,30.4,33.1,30.4,33.4z"/>
	<path class="st1" d="M29.9,31.5c0.1,0.2,0.3,0.4,0.5,0.4c0.1,0,0.1,0,0.2,0c0.3-0.1,0.4-0.4,0.3-0.7c-0.2-0.5-0.4-1-0.7-1.5
		c-0.2-0.3-0.5-0.4-0.8-0.2c-0.3,0.2-0.4,0.5-0.2,0.8C29.5,30.6,29.7,31,29.9,31.5z"/>
	<path class="st1" d="M31.3,36.3c-0.3,0-0.6,0.2-0.6,0.5c0,0.5-0.1,1-0.2,1.5c-0.1,0.3,0.1,0.6,0.4,0.7c0,0,0.1,0,0.1,0
		c0.3,0,0.5-0.2,0.6-0.5c0.1-0.5,0.2-1.1,0.2-1.6C31.8,36.6,31.6,36.3,31.3,36.3z"/>
</g>
</svg>
