<?xml version="1.0" encoding="utf-8"?>
<!-- Generator: Adobe Illustrator 22.1.0, SVG Export Plug-In . SVG Version: 6.00 Build 0)  -->
<svg version="1.1" id="Layer_1" xmlns="http://www.w3.org/2000/svg" xmlns:xlink="http://www.w3.org/1999/xlink" x="0px" y="0px"
	 viewBox="0 0 50 50" style="enable-background:new 0 0 50 50;" xml:space="preserve">
<style type="text/css">
	.st0{fill:#008660;}
	.st1{fill:none;stroke:#000000;stroke-miterlimit:10;}
</style>
<path class="st0" d="M-1111.7,32.8h5.4c0.3,0,0.6-0.3,0.6-0.6v-12c0-0.3-0.3-0.6-0.6-0.6h-5.4c-0.3,0-0.6,0.3-0.6,0.6v12
	C-1112.3,32.5-1112,32.8-1111.7,32.8z M-1111.1,20.8h4.3v10.8h-4.3V20.8z"/>
<path class="st0" d="M-1098.6,39c0.3,0,0.6-0.3,0.6-0.6V36c0-0.3-0.3-0.6-0.6-0.6c-0.3,0-0.6,0.3-0.6,0.6v2.4
	C-1099.2,38.7-1098.9,39-1098.6,39z"/>
<g>
	<path class="st1" d="M8.3,32.8h5.4c0.3,0,0.6-0.3,0.6-0.6v-12c0-0.3-0.3-0.6-0.6-0.6H8.3c-0.3,0-0.6,0.3-0.6,0.6v12
		C7.7,32.5,8,32.8,8.3,32.8z M8.9,20.8h4.3v10.8H8.9V20.8z"/>
	<path class="st1" d="M36.3,32.8h5.4c0.3,0,0.6-0.3,0.6-0.6v-12c0-0.3-0.3-0.6-0.6-0.6h-5.4c-0.3,0-0.6,0.3-0.6,0.6v12
		C35.7,32.5,36,32.8,36.3,32.8z M36.8,20.8h4.3v10.8h-4.3V20.8z"/>
	<path class="st1" d="M47.4,2H2.6C2.3,2,2,2.3,2,2.6v3.8C2,6.7,2.3,7,2.6,7h1.5v40.4c0,0.3,0.3,0.6,0.6,0.6h40.6
		c0.3,0,0.6-0.3,0.6-0.6V7h1.5C47.7,7,48,6.7,48,6.4V2.6C48,2.3,47.7,2,47.4,2z M32,46.8H18v-26h14V46.8z M44.7,46.8H33.1V20.2
		c0-0.3-0.3-0.6-0.6-0.6h-15c-0.3,0-0.6,0.3-0.6,0.6v26.6H5.3V7h39.5L44.7,46.8L44.7,46.8z M46.8,5.8H3.2V3.2h43.7v2.6H46.8z"/>
	<path class="st1" d="M21.4,39c0.3,0,0.6-0.3,0.6-0.6V36c0-0.3-0.3-0.6-0.6-0.6c-0.3,0-0.6,0.3-0.6,0.6v2.4
		C20.8,38.7,21.1,39,21.4,39z"/>
	<path class="st1" d="M21.4,32.8h7.2c0.3,0,0.6-0.3,0.6-0.6v-7.8c0-0.3-0.3-0.6-0.6-0.6h-7.2c-0.3,0-0.6,0.3-0.6,0.6v7.8
		C20.8,32.5,21.1,32.8,21.4,32.8z M22,24.9h6v6.7h-6V24.9z"/>
</g>
</svg>
