<?xml version="1.0" encoding="utf-8"?>
<!-- Generator: Adobe Illustrator 22.1.0, SVG Export Plug-In . SVG Version: 6.00 Build 0)  -->
<svg version="1.1" id="Layer_1" xmlns="http://www.w3.org/2000/svg" xmlns:xlink="http://www.w3.org/1999/xlink" x="0px" y="0px"
	 viewBox="0 0 50 50" style="enable-background:new 0 0 50 50;" xml:space="preserve">
<style type="text/css">
	.st0{fill:#008660;}
	.st1{fill:none;stroke:#000000;stroke-miterlimit:10;}
</style>
<path class="st0" d="M-1111.7,32.8h5.4c0.3,0,0.6-0.3,0.6-0.6v-12c0-0.3-0.3-0.6-0.6-0.6h-5.4c-0.3,0-0.6,0.3-0.6,0.6v12
	C-1112.3,32.5-1112,32.8-1111.7,32.8z M-1111.1,20.8h4.3v10.8h-4.3V20.8z"/>
<path class="st0" d="M-1098.6,39c0.3,0,0.6-0.3,0.6-0.6V36c0-0.3-0.3-0.6-0.6-0.6c-0.3,0-0.6,0.3-0.6,0.6v2.4
	C-1099.2,38.7-1098.9,39-1098.6,39z"/>
<g>
	<path class="st1" d="M42.8,19c-3.2-3.1-7.4-4.8-11.8-4.8c-0.6,0-1.1,0-1.7,0.1c-9,0.9-15.7,8.6-15.3,17.7C14.5,40.9,21.9,48,31,48
		c0.6,0,1.1,0,1.7-0.1c6.5-0.6,12.1-5,14.3-11.2C49.1,30.5,47.5,23.6,42.8,19L42.8,19z M42.2,41.5c-1-0.9-2-1.6-3.1-2.2
		c0.7-2.4,1.1-4.9,1.1-7.5h6.1C46.1,35.5,44.7,38.9,42.2,41.5z M40.8,42.9c-0.2,0.1-0.3,0.3-0.5,0.4c-0.2,0.2-0.4,0.3-0.7,0.5
		c-0.2,0.1-0.4,0.2-0.5,0.4c-0.2,0.1-0.5,0.3-0.7,0.4c-0.2,0.1-0.4,0.2-0.6,0.3c-0.2,0.1-0.5,0.2-0.7,0.3c-0.2,0.1-0.4,0.2-0.6,0.2
		c-0.3,0.1-0.5,0.2-0.8,0.3c-0.1,0-0.1,0-0.2,0.1c1.3-1.4,2.3-3.1,2.9-4.9c0.9,0.5,1.8,1.1,2.6,1.8C41,42.7,40.9,42.8,40.8,42.9
		L40.8,42.9z M25.3,45.4c-0.2-0.1-0.4-0.2-0.6-0.2c-0.2-0.1-0.5-0.2-0.7-0.3c-0.2-0.1-0.4-0.2-0.5-0.3c-0.2-0.1-0.5-0.3-0.7-0.4
		c-0.2-0.1-0.4-0.2-0.5-0.4c-0.2-0.2-0.4-0.3-0.7-0.5c-0.2-0.1-0.3-0.3-0.5-0.4c-0.1-0.1-0.2-0.2-0.3-0.3c0.8-0.7,1.6-1.3,2.6-1.8
		c0.6,1.8,1.6,3.5,2.9,4.9l-0.2-0.1C25.8,45.6,25.6,45.5,25.3,45.4L25.3,45.4z M19.7,20.6c1,0.9,2,1.6,3.1,2.2
		c-0.7,2.4-1.1,4.9-1.1,7.5h-6.1C15.8,26.7,17.2,23.3,19.7,20.6z M21.1,19.3c0.2-0.1,0.3-0.3,0.5-0.4c0.2-0.2,0.4-0.3,0.7-0.5
		c0.2-0.1,0.4-0.2,0.5-0.4c0.2-0.1,0.5-0.3,0.7-0.4c0.2-0.1,0.4-0.2,0.6-0.3c0.2-0.1,0.5-0.2,0.7-0.3c0.2-0.1,0.4-0.2,0.6-0.2
		c0.3-0.1,0.5-0.2,0.8-0.3c0.1,0,0.1,0,0.2-0.1c-1.3,1.4-2.3,3.1-2.9,4.9c-0.9-0.5-1.8-1.1-2.6-1.8C20.9,19.5,21,19.4,21.1,19.3
		L21.1,19.3z M36.6,16.8c0.2,0.1,0.4,0.2,0.6,0.2c0.2,0.1,0.5,0.2,0.7,0.3c0.2,0.1,0.4,0.2,0.5,0.3c0.2,0.1,0.5,0.3,0.7,0.4
		c0.2,0.1,0.4,0.2,0.5,0.4c0.2,0.2,0.4,0.3,0.7,0.5c0.2,0.1,0.3,0.3,0.5,0.4c0.1,0.1,0.2,0.2,0.3,0.3c-0.8,0.7-1.6,1.3-2.6,1.8
		c-0.6-1.8-1.6-3.5-2.9-4.9l0.2,0.1C36.1,16.6,36.3,16.7,36.6,16.8L36.6,16.8z M30.2,23.3c-1.9-0.1-3.7-0.5-5.4-1.3
		c1.3-3.4,3.2-5.8,5.4-6.3V23.3z M30.2,24.9v5.4h-6.9c0-2.3,0.4-4.6,1-6.8C26.2,24.3,28.2,24.8,30.2,24.9L30.2,24.9z M30.2,31.8v5.4
		c-2,0.1-4,0.5-5.9,1.3c-0.6-2.2-1-4.5-1-6.8H30.2z M30.2,38.8v7.6c-2.2-0.5-4.1-2.9-5.4-6.3C26.5,39.3,28.3,38.9,30.2,38.8z
		 M31.7,38.8c1.9,0.1,3.7,0.5,5.4,1.3c-1.3,3.4-3.2,5.8-5.4,6.3V38.8z M31.7,37.3v-5.4h6.9c0,2.3-0.4,4.6-1,6.8
		C35.8,37.8,33.8,37.4,31.7,37.3L31.7,37.3z M31.7,30.3v-5.4c2-0.1,4-0.5,5.9-1.3c0.6,2.2,1,4.5,1,6.8H31.7z M31.7,23.3v-7.6
		c2.2,0.5,4.1,2.9,5.4,6.3C35.4,22.8,33.6,23.3,31.7,23.3z M21.7,31.8c0,2.5,0.4,5,1.1,7.5c-1.1,0.6-2.2,1.4-3.1,2.2
		c-2.5-2.6-3.9-6.1-4.1-9.7H21.7z M40.2,30.3c0-2.5-0.4-5-1.1-7.5c1.1-0.6,2.2-1.4,3.1-2.2c2.5,2.6,3.9,6.1,4.1,9.7H40.2z"/>
	<path class="st1" d="M9.4,20c0.4,0,0.8-0.2,1.1-0.4L23.6,6.5c0.6-0.6,0.6-1.6,0-2.2l-1.6-1.6c-0.9-0.9-2.4-0.9-3.3,0l-3.5,3.5
		L7.6,3.5C7.3,3.4,7,3.5,6.8,3.7L5.1,5.4C4.9,5.6,4.8,5.8,4.8,6c0,0.2,0.1,0.4,0.3,0.6l5.7,3.8l-2.7,2.7L5,10.8
		c-0.3-0.2-0.7-0.2-1,0.1l-1.6,1.6c-0.3,0.3-0.3,0.8,0,1.1l6,6C8.6,19.8,9,20,9.4,20z M6.8,5.8l0.7-0.7L14,7.3l-2,2L6.8,5.8z
		 M4.6,12.4l3.3,2.3c0.3,0.2,0.7,0.2,1-0.1L19.8,3.8c0.1-0.1,0.3-0.2,0.5-0.2c0.2,0,0.4,0.1,0.5,0.2l1.6,1.6L9.4,18.4L4,13L4.6,12.4
		z"/>
	<path class="st1" d="M18.7,5.9l1.1-1.1l1.1,1.1L19.8,7L18.7,5.9z"/>
	<path class="st1" d="M34.1,6.4c-0.5-0.2-1-0.4-1.5-0.5l-0.4,1.5c0.5,0.1,0.9,0.3,1.4,0.5L34.1,6.4z"/>
	<path class="st1" d="M27.9,5c-0.5,0-1.1-0.1-1.6-0.1v1.5c0.5,0,1,0,1.5,0.1L27.9,5z"/>
	<path class="st1" d="M37,7.7c-0.5-0.3-0.9-0.5-1.4-0.7l-0.7,1.4c0.4,0.2,0.9,0.4,1.3,0.7L37,7.7z"/>
	<path class="st1" d="M31.1,5.4c-0.5-0.1-1-0.2-1.6-0.3l-0.2,1.5c0.5,0.1,1,0.2,1.5,0.3L31.1,5.4z"/>
	<path class="st1" d="M42.8,15l1.3-0.9c-0.3-0.4-0.6-0.9-1-1.3l-1.2,1C42.2,14.2,42.5,14.6,42.8,15z"/>
	<path class="st1" d="M39.7,9.5c-0.4-0.3-0.8-0.6-1.3-0.9l-0.9,1.3c0.4,0.3,0.8,0.6,1.2,0.9L39.7,9.5z"/>
	<path class="st1" d="M45.4,20.3l1.5-0.5c-0.2-0.5-0.3-1-0.5-1.5l-1.4,0.6C45.1,19.4,45.2,19.9,45.4,20.3z"/>
	<path class="st1" d="M44.3,17.6l1.4-0.7c-0.2-0.5-0.5-0.9-0.8-1.4l-1.3,0.8C43.8,16.7,44,17.1,44.3,17.6z"/>
	<path class="st1" d="M42,11.7c-0.4-0.4-0.7-0.8-1.1-1.1l-1,1.1c0.4,0.3,0.7,0.7,1.1,1L42,11.7z"/>
	<path class="st1" d="M12.9,43.3c0.4,0.3,0.8,0.6,1.3,0.9l0.9-1.3c-0.4-0.3-0.8-0.6-1.2-0.9L12.9,43.3z"/>
	<path class="st1" d="M18.5,46.5c0.5,0.2,1,0.4,1.5,0.5l0.5-1.5c-0.5-0.1-0.9-0.3-1.4-0.5L18.5,46.5z"/>
	<path class="st1" d="M7.3,32.5L5.8,33c0.2,0.5,0.3,1,0.5,1.5l1.4-0.6C7.6,33.4,7.4,33,7.3,32.5z"/>
	<path class="st1" d="M9.9,37.8l-1.3,0.9c0.3,0.4,0.6,0.9,1,1.3l1.2-1C10.4,38.6,10.1,38.2,9.9,37.8z"/>
	<path class="st1" d="M8.4,35.3L7,35.9c0.2,0.5,0.5,1,0.8,1.4l1.3-0.8C8.8,36.1,8.6,35.7,8.4,35.3z"/>
	<path class="st1" d="M10.6,41.2c0.4,0.4,0.7,0.8,1.1,1.1l1-1.1c-0.4-0.3-0.7-0.7-1.1-1L10.6,41.2z"/>
	<path class="st1" d="M6.3,26.7l-1.5,0c0,0.5,0,1.1,0.1,1.6l1.5-0.1C6.4,27.7,6.3,27.2,6.3,26.7z"/>
	<path class="st1" d="M6.6,29.6l-1.5,0.2c0.1,0.5,0.2,1,0.3,1.6l1.5-0.4C6.8,30.6,6.7,30.1,6.6,29.6z"/>
	<path class="st1" d="M4.8,25.1l1.5,0.1c0-0.5,0.1-1,0.1-1.5L5,23.5C4.9,24,4.9,24.6,4.8,25.1z"/>
	<path class="st1" d="M7.1,20.9l-1.5-0.4c-0.1,0.5-0.3,1-0.4,1.5l1.5,0.3C6.9,21.8,7,21.4,7.1,20.9z"/>
	<path class="st1" d="M15.6,45.1c0.5,0.3,0.9,0.5,1.4,0.7l0.7-1.4c-0.4-0.2-0.9-0.4-1.3-0.7L15.6,45.1z"/>
	<path class="st1" d="M42.8,19c-3.2-3.1-7.4-4.8-11.8-4.8c-0.6,0-1.1,0-1.7,0.1c-9,0.9-15.7,8.6-15.3,17.7C14.5,40.9,21.9,48,31,48
		c0.6,0,1.1,0,1.7-0.1c6.5-0.6,12.1-5,14.3-11.2C49.1,30.5,47.5,23.6,42.8,19L42.8,19z M42.2,41.5c-1-0.9-2-1.6-3.1-2.2
		c0.7-2.4,1.1-4.9,1.1-7.5h6.1C46.1,35.5,44.7,38.9,42.2,41.5z M40.8,42.9c-0.2,0.1-0.3,0.3-0.5,0.4c-0.2,0.2-0.4,0.3-0.7,0.5
		c-0.2,0.1-0.4,0.2-0.5,0.4c-0.2,0.1-0.5,0.3-0.7,0.4c-0.2,0.1-0.4,0.2-0.6,0.3c-0.2,0.1-0.5,0.2-0.7,0.3c-0.2,0.1-0.4,0.2-0.6,0.2
		c-0.3,0.1-0.5,0.2-0.8,0.3c-0.1,0-0.1,0-0.2,0.1c1.3-1.4,2.3-3.1,2.9-4.9c0.9,0.5,1.8,1.1,2.6,1.8C41,42.7,40.9,42.8,40.8,42.9
		L40.8,42.9z M25.3,45.4c-0.2-0.1-0.4-0.2-0.6-0.2c-0.2-0.1-0.5-0.2-0.7-0.3c-0.2-0.1-0.4-0.2-0.5-0.3c-0.2-0.1-0.5-0.3-0.7-0.4
		c-0.2-0.1-0.4-0.2-0.5-0.4c-0.2-0.2-0.4-0.3-0.7-0.5c-0.2-0.1-0.3-0.3-0.5-0.4c-0.1-0.1-0.2-0.2-0.3-0.3c0.8-0.7,1.6-1.3,2.6-1.8
		c0.6,1.8,1.6,3.5,2.9,4.9l-0.2-0.1C25.8,45.6,25.6,45.5,25.3,45.4L25.3,45.4z M19.7,20.6c1,0.9,2,1.6,3.1,2.2
		c-0.7,2.4-1.1,4.9-1.1,7.5h-6.1C15.8,26.7,17.2,23.3,19.7,20.6z M21.1,19.3c0.2-0.1,0.3-0.3,0.5-0.4c0.2-0.2,0.4-0.3,0.7-0.5
		c0.2-0.1,0.4-0.2,0.5-0.4c0.2-0.1,0.5-0.3,0.7-0.4c0.2-0.1,0.4-0.2,0.6-0.3c0.2-0.1,0.5-0.2,0.7-0.3c0.2-0.1,0.4-0.2,0.6-0.2
		c0.3-0.1,0.5-0.2,0.8-0.3c0.1,0,0.1,0,0.2-0.1c-1.3,1.4-2.3,3.1-2.9,4.9c-0.9-0.5-1.8-1.1-2.6-1.8C20.9,19.5,21,19.4,21.1,19.3
		L21.1,19.3z M36.6,16.8c0.2,0.1,0.4,0.2,0.6,0.2c0.2,0.1,0.5,0.2,0.7,0.3c0.2,0.1,0.4,0.2,0.5,0.3c0.2,0.1,0.5,0.3,0.7,0.4
		c0.2,0.1,0.4,0.2,0.5,0.4c0.2,0.2,0.4,0.3,0.7,0.5c0.2,0.1,0.3,0.3,0.5,0.4c0.1,0.1,0.2,0.2,0.3,0.3c-0.8,0.7-1.6,1.3-2.6,1.8
		c-0.6-1.8-1.6-3.5-2.9-4.9l0.2,0.1C36.1,16.6,36.3,16.7,36.6,16.8L36.6,16.8z M30.2,23.3c-1.9-0.1-3.7-0.5-5.4-1.3
		c1.3-3.4,3.2-5.8,5.4-6.3V23.3z M30.2,24.9v5.4h-6.9c0-2.3,0.4-4.6,1-6.8C26.2,24.3,28.2,24.8,30.2,24.9L30.2,24.9z M30.2,31.8v5.4
		c-2,0.1-4,0.5-5.9,1.3c-0.6-2.2-1-4.5-1-6.8H30.2z M30.2,38.8v7.6c-2.2-0.5-4.1-2.9-5.4-6.3C26.5,39.3,28.3,38.9,30.2,38.8z
		 M31.7,38.8c1.9,0.1,3.7,0.5,5.4,1.3c-1.3,3.4-3.2,5.8-5.4,6.3V38.8z M31.7,37.3v-5.4h6.9c0,2.3-0.4,4.6-1,6.8
		C35.8,37.8,33.8,37.4,31.7,37.3L31.7,37.3z M31.7,30.3v-5.4c2-0.1,4-0.5,5.9-1.3c0.6,2.2,1,4.5,1,6.8H31.7z M31.7,23.3v-7.6
		c2.2,0.5,4.1,2.9,5.4,6.3C35.4,22.8,33.6,23.3,31.7,23.3z M21.7,31.8c0,2.5,0.4,5,1.1,7.5c-1.1,0.6-2.2,1.4-3.1,2.2
		c-2.5-2.6-3.9-6.1-4.1-9.7H21.7z M40.2,30.3c0-2.5-0.4-5-1.1-7.5c1.1-0.6,2.2-1.4,3.1-2.2c2.5,2.6,3.9,6.1,4.1,9.7H40.2z"/>
	<path class="st1" d="M9.4,20c0.4,0,0.8-0.2,1.1-0.4L23.6,6.5c0.6-0.6,0.6-1.6,0-2.2l-1.6-1.6c-0.9-0.9-2.4-0.9-3.3,0l-3.5,3.5
		L7.6,3.5C7.3,3.4,7,3.5,6.8,3.7L5.1,5.4C4.9,5.6,4.8,5.8,4.8,6c0,0.2,0.1,0.4,0.3,0.6l5.7,3.8l-2.7,2.7L5,10.8
		c-0.3-0.2-0.7-0.2-1,0.1l-1.6,1.6c-0.3,0.3-0.3,0.8,0,1.1l6,6C8.6,19.8,9,20,9.4,20z M6.8,5.8l0.7-0.7L14,7.3l-2,2L6.8,5.8z
		 M4.6,12.4l3.3,2.3c0.3,0.2,0.7,0.2,1-0.1L19.8,3.8c0.1-0.1,0.3-0.2,0.5-0.2c0.2,0,0.4,0.1,0.5,0.2l1.6,1.6L9.4,18.4L4,13L4.6,12.4
		z"/>
	<path class="st1" d="M18.7,5.9l1.1-1.1l1.1,1.1L19.8,7L18.7,5.9z"/>
	<path class="st1" d="M34.1,6.4c-0.5-0.2-1-0.4-1.5-0.5l-0.4,1.5c0.5,0.1,0.9,0.3,1.4,0.5L34.1,6.4z"/>
	<path class="st1" d="M27.9,5c-0.5,0-1.1-0.1-1.6-0.1v1.5c0.5,0,1,0,1.5,0.1L27.9,5z"/>
	<path class="st1" d="M37,7.7c-0.5-0.3-0.9-0.5-1.4-0.7l-0.7,1.4c0.4,0.2,0.9,0.4,1.3,0.7L37,7.7z"/>
	<path class="st1" d="M31.1,5.4c-0.5-0.1-1-0.2-1.6-0.3l-0.2,1.5c0.5,0.1,1,0.2,1.5,0.3L31.1,5.4z"/>
	<path class="st1" d="M42.8,15l1.3-0.9c-0.3-0.4-0.6-0.9-1-1.3l-1.2,1C42.2,14.2,42.5,14.6,42.8,15z"/>
	<path class="st1" d="M39.7,9.5c-0.4-0.3-0.8-0.6-1.3-0.9l-0.9,1.3c0.4,0.3,0.8,0.6,1.2,0.9L39.7,9.5z"/>
	<path class="st1" d="M45.4,20.3l1.5-0.5c-0.2-0.5-0.3-1-0.5-1.5l-1.4,0.6C45.1,19.4,45.2,19.9,45.4,20.3z"/>
	<path class="st1" d="M44.3,17.6l1.4-0.7c-0.2-0.5-0.5-0.9-0.8-1.4l-1.3,0.8C43.8,16.7,44,17.1,44.3,17.6z"/>
	<path class="st1" d="M42,11.7c-0.4-0.4-0.7-0.8-1.1-1.1l-1,1.1c0.4,0.3,0.7,0.7,1.1,1L42,11.7z"/>
	<path class="st1" d="M12.9,43.3c0.4,0.3,0.8,0.6,1.3,0.9l0.9-1.3c-0.4-0.3-0.8-0.6-1.2-0.9L12.9,43.3z"/>
	<path class="st1" d="M18.5,46.5c0.5,0.2,1,0.4,1.5,0.5l0.5-1.5c-0.5-0.1-0.9-0.3-1.4-0.5L18.5,46.5z"/>
	<path class="st1" d="M7.3,32.5L5.8,33c0.2,0.5,0.3,1,0.5,1.5l1.4-0.6C7.6,33.4,7.4,33,7.3,32.5z"/>
	<path class="st1" d="M9.9,37.8l-1.3,0.9c0.3,0.4,0.6,0.9,1,1.3l1.2-1C10.4,38.6,10.1,38.2,9.9,37.8z"/>
	<path class="st1" d="M8.4,35.3L7,35.9c0.2,0.5,0.5,1,0.8,1.4l1.3-0.8C8.8,36.1,8.6,35.7,8.4,35.3z"/>
	<path class="st1" d="M10.6,41.2c0.4,0.4,0.7,0.8,1.1,1.1l1-1.1c-0.4-0.3-0.7-0.7-1.1-1L10.6,41.2z"/>
	<path class="st1" d="M6.3,26.7l-1.5,0c0,0.5,0,1.1,0.1,1.6l1.5-0.1C6.4,27.7,6.3,27.2,6.3,26.7z"/>
	<path class="st1" d="M6.6,29.6l-1.5,0.2c0.1,0.5,0.2,1,0.3,1.6l1.5-0.4C6.8,30.6,6.7,30.1,6.6,29.6z"/>
	<path class="st1" d="M4.8,25.1l1.5,0.1c0-0.5,0.1-1,0.1-1.5L5,23.5C4.9,24,4.9,24.6,4.8,25.1z"/>
	<path class="st1" d="M7.1,20.9l-1.5-0.4c-0.1,0.5-0.3,1-0.4,1.5l1.5,0.3C6.9,21.8,7,21.4,7.1,20.9z"/>
	<path class="st1" d="M15.6,45.1c0.5,0.3,0.9,0.5,1.4,0.7l0.7-1.4c-0.4-0.2-0.9-0.4-1.3-0.7L15.6,45.1z"/>
</g>
</svg>
